<?xml version="1.0" encoding="utf-8"?>
<!-- Generator: Adobe Illustrator 25.2.1, SVG Export Plug-In . SVG Version: 6.00 Build 0)  -->
<svg version="1.1" id="レイヤー_1" xmlns="http://www.w3.org/2000/svg" xmlns:xlink="http://www.w3.org/1999/xlink" x="0px"
	 y="0px" viewBox="0 0 1506.6 510.6" style="enable-background:new 0 0 1506.6 510.6;" xml:space="preserve">
<style type="text/css">
	.st0{fill:#828282;}
	.st1{fill:#F2F2F2;}
	.st2{fill:#354E7A;}
	.st3{fill:#808080;}
	.st4{fill:#354E7A;stroke:#FFFFFF;stroke-width:1.1816;stroke-miterlimit:10;}
	.st5{fill:#354E7A;stroke:#FFFFFF;stroke-width:4.7262;stroke-linecap:round;stroke-linejoin:round;stroke-miterlimit:10;}
</style>
<g>
	<g>
		<path class="st0" d="M-674.1-156.3l2.7,5.4l-2.7,18.8l6.2,6.2l6.2-6.2l-2.7-18.8l2.7-5.4H-674.1z M-667.8-160.8
			c14.9,0,27-12.1,27-27s-12.1-27-27-27s-27,12.1-27,27C-694.8-172.9-682.7-160.8-667.8-160.8z M-667.8-209
			c11.7,0,21.2,9.5,21.2,21.2s-9.5,21.2-21.2,21.2s-21.2-9.5-21.2-21.2S-679.5-209-667.8-209z M-685.9-180.6L-685.9-180.6
			L-685.9-180.6L-685.9-180.6z M-658.4-189.3c1.3,3,3.5,6.8,6.6,9.3l3.5-4.6c-1.5-1.1-3.3-3.8-4.4-6.2c-1.2-2.4-1.9-4.4-1.9-4.4
			l-1.7-4.9l-3.3,4c0,0,0,0-0.2,0.2c-1.1,1.2-7,7.1-17.9,9.1c-2,0.4-3.8,0.5-5.3,0.5c-0.9,0-1.6,0-2.3-0.1l-0.6,5.7
			c0.9,0.1,1.9,0.2,2.9,0.2c1.9,0,4-0.2,6.4-0.6C-667.8-182.7-661.8-186.5-658.4-189.3z M-617-131.3c-2.1,0-3.8,1.7-3.8,3.8
			c0,1.3,0.7,2.5,1.7,3.2v7.4h4.3v-7.4c1-0.7,1.7-1.8,1.7-3.2C-613.2-129.6-614.9-131.3-617-131.3z M-596.1-139.9h-8.9v-5.2
			c0-3-2.4-5.4-5.4-5.4h-13c-4.5-5.7-11.4-9.3-19.2-9.3h-6.2l-17.9,54.6h-1.9l-18.4-54.6h-6.2c-13.5,0-24.5,11-24.5,24.5v35.9h99.5
			l0,0h22c4.9,0,8.9-4,8.9-8.9V-131C-587.2-135.9-591.2-139.9-596.1-139.9z M-711.8-105.2v-30.1c0-10.3,8.4-18.7,18.7-18.7h2
			l16.5,48.8H-711.8z M-623.3-144.8h12.5v4.9h-12.5V-144.8z M-646.8-131v22.7c0,1.1,0.2,2.2,0.6,3.1l0,0h-14.4l16-48.8h2
			c5.7,0,10.7,2.5,14.2,6.5c-0.4,0.7-0.6,1.5-0.6,2.4v5.2h-8.9C-642.8-139.9-646.8-135.9-646.8-131z M-592.9-108.4
			c0,1.7-1.4,3.2-3.2,3.2h-41.8c-1.7,0-3.1-1.4-3.2-3.2v-6.7c6.7,4.4,15,7,24.1,7c9,0,17.4-2.6,24.1-7L-592.9-108.4L-592.9-108.4z
			 M-592.9-122.1c-6.1,5.1-14.6,8.4-24.1,8.4s-18-3.3-24.1-8.4v-8.9c0-1.7,1.4-3.2,3.2-3.2h41.8c1.7,0,3.2,1.4,3.2,3.2L-592.9-122.1
			L-592.9-122.1z M-704.8-132.7h13v-5.8h-13V-132.7z"/>
	</g>
	<g>
		<g>
			<path class="st1" d="M-675.1-157.3l2.7,5.4l-2.7,18.8l6.2,6.2l6.2-6.2l-2.7-18.8l2.7-5.4H-675.1z M-668.8-161.8
				c14.9,0,27-12.1,27-27s-12.1-27-27-27s-27,12.1-27,27C-695.8-173.9-683.7-161.8-668.8-161.8z M-668.8-210
				c11.7,0,21.2,9.5,21.2,21.2s-9.5,21.2-21.2,21.2s-21.2-9.5-21.2-21.2S-680.5-210-668.8-210z M-686.9-181.6L-686.9-181.6
				L-686.9-181.6L-686.9-181.6z M-659.4-190.3c1.3,3,3.5,6.8,6.6,9.3l3.5-4.6c-1.5-1.1-3.3-3.8-4.4-6.2c-1.2-2.4-1.9-4.4-1.9-4.4
				l-1.7-4.9l-3.3,4c0,0,0,0-0.2,0.2c-1.1,1.2-7,7.1-17.9,9.1c-2,0.4-3.8,0.5-5.3,0.5c-0.9,0-1.6,0-2.3-0.1l-0.6,5.7
				c0.9,0.1,1.9,0.2,2.9,0.2c1.9,0,4-0.2,6.4-0.6C-668.8-183.7-662.8-187.5-659.4-190.3z M-618-132.3c-2.1,0-3.8,1.7-3.8,3.8
				c0,1.3,0.7,2.5,1.7,3.2v7.4h4.3v-7.4c1-0.7,1.7-1.8,1.7-3.2C-614.2-130.6-615.9-132.3-618-132.3z M-597.1-140.9h-8.9v-5.2
				c0-3-2.4-5.4-5.4-5.4h-13c-4.5-5.7-11.4-9.3-19.2-9.3h-6.2l-17.9,54.6h-1.9l-18.4-54.6h-6.2c-13.5,0-24.5,11-24.5,24.5v35.9h99.5
				l0,0h22c4.9,0,8.9-4,8.9-8.9V-132C-588.2-136.9-592.2-140.9-597.1-140.9z M-712.8-106.2v-30.1c0-10.3,8.4-18.7,18.7-18.7h2
				l16.5,48.8H-712.8z M-624.3-145.8h12.5v4.9h-12.5V-145.8z M-647.8-132v22.7c0,1.1,0.2,2.2,0.6,3.1l0,0h-14.4l16-48.8h2
				c5.7,0,10.7,2.5,14.2,6.5c-0.4,0.7-0.6,1.5-0.6,2.4v5.2h-8.9C-643.8-140.9-647.8-136.9-647.8-132z M-593.9-109.4
				c0,1.7-1.4,3.2-3.2,3.2h-41.8c-1.7,0-3.1-1.4-3.2-3.2v-6.7c6.7,4.4,15,7,24.1,7c9,0,17.4-2.6,24.1-7L-593.9-109.4L-593.9-109.4z
				 M-593.9-123.1c-6.1,5.1-14.6,8.4-24.1,8.4s-18-3.3-24.1-8.4v-8.9c0-1.7,1.4-3.2,3.2-3.2h41.8c1.7,0,3.2,1.4,3.2,3.2
				L-593.9-123.1L-593.9-123.1z M-705.8-133.7h13v-5.8h-13V-133.7z"/>
		</g>
	</g>
</g>
<g>
	<g>
		<g>
			<path class="st2" d="M437.5,178.5V125H432v-7.3h13.4v60.8H437.5z"/>
			<path class="st2" d="M508.6,172v7c-3.7,0.4-7.4,0.6-11.1,0.6c-8,0-16.6-1-23.1-2.5v-57.8c2.3-0.6,4.9-1.2,7.9-1.4V172H508.6z
				 M520.7,119.2v57.8c-2.4,0.6-5,1.2-7.9,1.4v-54.2h-26.3v-7c3.7-0.4,7.4-0.6,11.1-0.6C505.4,116.7,514.1,117.7,520.7,119.2z"/>
			<path class="st2" d="M545,164v-6.6l27.7-39.6h9L549.2,164L545,164L545,164z M594.7,157v7h-8.3v14.6h-7.9V164h-24l4.9-7h19.1
				v-19.8h7.9V157H594.7z"/>
		</g>
		<g>
			<g>
				<path class="st2" d="M436.4,177.4V124h-5.5v-7.3h13.4v60.8H436.4z"/>
				<path class="st2" d="M507.6,170.9v7c-3.7,0.4-7.4,0.6-11.1,0.6c-8,0-16.6-1-23.1-2.5v-57.8c2.3-0.6,4.9-1.2,7.9-1.4v54.2H507.6z
					 M519.6,118.1V176c-2.4,0.6-5,1.2-7.9,1.4v-54.2h-26.3v-7c3.7-0.4,7.4-0.6,11.1-0.6C504.4,115.6,513,116.6,519.6,118.1z"/>
				<path class="st2" d="M544,162.9v-6.6l27.7-39.6h9l-32.4,46.2H544z M593.6,155.9v7h-8.3v14.6h-7.9v-14.6h-24l4.9-7h19.1v-19.8
					h7.9v19.8H593.6z"/>
			</g>
		</g>
	</g>
	<g>
		<g>
			<path class="st2" d="M675.4,179.4v12.4c0,2.4-4.4,2.9-4.8,2.9c-1.5,0-1.8-0.9-1.8-1.8v-1.5h-16.7v1.1c0,1.6-3.1,2.5-4.5,2.5
				c-1.2,0-1.8-0.5-1.8-1.6v-10.6c-1.2,0.5-5.7,2.4-10.9,3.2l-0.1-0.5c4.7-1.7,7.6-3.4,11-6v-5.3l4.8,1.6c2.2-1.9,3.2-3,3.8-3.7
				c-1.4-0.2-2.3-1-2.4-2.6c-0.1-2.5-0.2-3.7-1.5-4.9c-6.2,6.9-11,8.4-13.1,9.1l-0.1-0.4c7.3-6.1,11.1-15,12.7-22l8.6,2.1
				c0.5,0.1,0.8,0.4,0.8,0.9c0,0.7-0.2,0.8-2.2,1.3c-0.3,0.5-0.9,1.4-1.5,2.3h9.1l1.7-2.2c0.3-0.4,0.8-0.8,1.7-0.8
				c0.8,0,1.4,0.3,1.7,0.6l3.4,2.8c0.3,0.2,0.6,0.5,0.6,1c0,0.8-0.6,1-2.5,1.7c-3.6,6.2-8.5,11.4-14.5,15.5h11.5l1.5-1.9
				c0.2-0.3,0.6-0.7,1.5-0.7c0.6,0,1,0.1,1.5,0.5l3.2,2.3c0.3,0.2,0.6,0.5,0.6,0.9S675.8,179.1,675.4,179.4z M655,158.8
				c-1.1,1.6-1.9,2.6-2.9,3.9c3.4,0.3,6.1,2.7,6.2,4.9c2-2.4,3.8-4.9,5.9-8.7L655,158.8L655,158.8z M668.9,177.5h-13.3
				c-1.5,1-2.8,1.8-3.4,2.1v10.7h16.7V177.5z"/>
		</g>
		<g>
			<g>
				<path class="st2" d="M673.8,177.7v12.4c0,2.4-4.4,2.9-4.8,2.9c-1.5,0-1.8-0.9-1.8-1.8v-1.4h-16.7v1.1c0,1.6-3.1,2.5-4.5,2.5
					c-1.2,0-1.8-0.5-1.8-1.6v-10.6c-1.2,0.5-5.7,2.4-10.9,3.2l-0.1-0.5c4.7-1.7,7.6-3.4,11-6v-5.3l4.8,1.6c2.2-1.9,3.2-3,3.8-3.7
					c-1.4-0.2-2.3-1-2.4-2.6c-0.1-2.5-0.2-3.7-1.5-4.9c-6.2,6.9-11,8.4-13.1,9.1l-0.1-0.4c7.3-6.1,11.1-15,12.7-22l8.6,2.1
					c0.5,0.1,0.8,0.4,0.8,0.9c0,0.7-0.2,0.8-2.2,1.3c-0.3,0.5-0.9,1.4-1.5,2.3h9.1l1.7-2.2c0.3-0.4,0.8-0.8,1.7-0.8
					c0.8,0,1.4,0.3,1.7,0.6l3.4,2.8c0.3,0.2,0.6,0.5,0.6,1c0,0.8-0.6,1-2.5,1.7c-3.6,6.2-8.5,11.4-14.5,15.5h11.5l1.5-1.9
					c0.2-0.3,0.6-0.7,1.5-0.7c0.6,0,1,0.1,1.5,0.5l3.2,2.3c0.3,0.2,0.6,0.5,0.6,0.9S674.1,177.4,673.8,177.7z M653.4,157.3
					c-1.1,1.6-1.9,2.6-2.9,3.9c3.4,0.3,6.1,2.7,6.2,4.9c2-2.4,3.8-4.9,5.9-8.7L653.4,157.3L653.4,157.3z M667.2,175.9h-13.3
					c-1.5,1-2.8,1.8-3.4,2.1v10.7h16.7V175.9z"/>
			</g>
		</g>
	</g>
	<g>
		<g>
			<path class="st2" d="M335.7,87.9c-1.9,0-2.5-1.9-3-3.6c-0.8-2.9-1.9-3.8-2.7-4.3v17.1c0,1.7-2.1,2.3-3.6,2.3
				c-1.3,0-1.3-0.4-1.3-1.4V82.5c-1.8,1.4-3.7,2.3-6.1,3.3l-0.2-0.4c2.4-2,4.2-4.1,6.3-6.5v-2l1.5,0.2c1.5-2.4,1.8-3.2,3.1-5.9h-9.3
				l-0.5-0.9h5.3v-8.2l5.1,0.5c0.4,0,0.8,0.3,0.8,0.7c0,0.4-0.1,0.5-1.3,1v5.8h0.2l1.6-2.3c0,0,0.5-0.5,1.1-0.5c0.3,0,0.8,0.2,1,0.4
				l2.7,2.5c0.2,0.2,0.4,0.7,0.4,1c0,0.7-0.2,0.8-2,1.3c-1.5,2-2.8,3.5-4.5,5.1c0.2,0.1,0.5,0.3,0.5,0.6c0,0.3-0.1,0.4-0.5,0.8
				c3.4,0.7,7.5,2.9,7.5,6C337.9,86.1,337.1,87.9,335.7,87.9z M356.4,97h-24.3l-0.5-1h10.2V77.6h-7.7l-0.5-0.9h8.2V62l5.2,0.4
				c0.3,0,1.2,0.1,1.2,0.7c0,0.6-0.8,0.9-1.3,1.1v12.6h2l2.1-3.1c0.2-0.2,0.3-0.4,0.7-0.4c0.3,0,0.5,0.2,0.8,0.4l2.9,2.7
				c0,0,0.4,0.4,0.4,0.8c0,0.4-0.3,0.5-0.7,0.5h-8.2V96h2.9l2.4-3.3c0.1-0.2,0.3-0.4,0.7-0.4c0.3,0,0.5,0.2,0.7,0.4l3.1,3
				c0,0,0.4,0.4,0.4,0.8C357.1,96.8,356.8,97,356.4,97z"/>
			<path class="st2" d="M392.4,99.3c-1.4,0-1.9-0.6-4-2.8c-1.6-1.6-4.5-3.7-8.7-4.5v-0.4c0.9-0.1,2-0.2,3.8-0.2c2.8,0,4.3,0.3,5,0.5
				v-1.1h-14.1l3.6,2.3c0.5,0.3,0.6,0.5,0.6,0.9c0,0.6-0.2,0.6-2,0.7c-5.4,2.5-8.6,3.9-15.4,4.2v-0.4c6.4-2,9.8-6,10.7-7.7h-1.6
				c0,0.7,0,1-0.4,1.4c-0.5,0.5-2,1-3.7,1c-1.1,0-1.2-0.5-1.2-1.4V74l2.2,0.8c-0.1-0.3-0.1-0.4-0.1-0.7V62.1l5,2H387l1.1-1.3
				c0.4-0.5,0.8-0.8,1.3-0.8c0.4,0,0.8,0.2,1.2,0.4l2.7,2c0.3,0.2,0.5,0.5,0.5,0.8c0,0.5-1.3,1.6-1.6,1.8v5.5c0,0.6-0.2,0.8-0.6,1.1
				c0.3,0.2,0.5,0.3,0.6,0.3l2.2,1.7c0.3,0.3,0.6,0.5,0.6,1c0,0.3-0.1,0.4-1.1,1.5v12.6c0,0.8-0.1,1.6-2.1,1.9
				c1.3,0.4,3.5,1.1,3.5,3.7C395,96.8,394.9,99.3,392.4,99.3z M388.1,74.5c-0.9,0-1-0.4-1-1.1v-0.8h-15.3c0,1.5,0,2.1-3.3,2.5l2,0.7
				h17.9l1.2-1.5C389.1,74.4,388.4,74.5,388.1,74.5z M388.6,76.7h-18.4v3.7h18.4V76.7z M388.6,81.4h-18.4v3.8h18.4V81.4z M388.6,86
				h-18.4v4h18.4V86z M387.1,65.2h-15.3v6.6h15.3V65.2z"/>
			<path class="st2" d="M436.6,97.2c-0.2,0.6-0.5,1.3-0.7,1.3c-0.3,0-1.8-0.9-2.8-1.6c-2.6-1.7-4.1-3.7-4.8-4.6
				c-3.8,3.6-7.9,5.3-12.2,6.4l-0.1-0.4c0.5-0.3,0.8-0.4,1.3-0.6c-1.5,0-2-0.9-2.1-1.1c-0.2-0.3-1.1-1.7-1.3-2
				c-1.9,1.7-5.7,3.6-12,4.2v-0.5c1.7-0.5,6.1-1.6,9.5-6.4c-0.5-0.3-1-0.6-1.6-0.9l-0.5,1.3c-0.5,1.1-2.3,1.1-2.8,1.1
				c-0.4,0-2.2-0.1-2.2-1.1c0-0.2,0.1-0.5,0.2-0.6c1.1-2.2,2.3-5,3.1-6.6h-5.8l-0.5-1h6.5l1.5-3.1v-3.8c-2.3,2-4.8,3.7-7.9,4.8
				l-0.2-0.4c3.6-2.9,4.9-5.2,6.3-9.6h-4.9l-0.5-0.9h7.3v-8.8l4.9,0.3c0.5,0,0.8,0.4,0.8,0.6c0,0.5-0.6,0.8-1.1,1V70
				c0.8-2.1,1.7-4.9,2.3-7l4.9,1.6c0.2,0.1,0.4,0.3,0.4,0.5c0,0.5-0.3,0.5-1.4,0.7c-1.6,1.7-4.2,4.2-5.6,5.3h2.1l1.6-2.3
				c0.1-0.2,0.3-0.4,0.7-0.4c0.3,0,0.5,0.1,0.8,0.4l2.5,2c0.2,0.2,0.3,0.4,0.3,0.6c0,0.6-0.5,0.6-0.8,0.6h-7.7v0.8
				c1.8,0.2,5.6,1.1,7,3.5c2.6-3.8,3.6-9.3,4-14.2l6.2,0.8c0.4,0,0.8,0.3,0.8,0.7c0,0.6-0.6,0.8-1.4,1c-0.6,1.2-1.8,3.8-3.5,6.6h5.9
				l1.9-2.8c0.1-0.2,0.3-0.4,0.7-0.4c0.3,0,0.5,0.2,0.8,0.4l2.8,2.5c0.2,0.1,0.4,0.3,0.4,0.7c0,0.4-0.4,0.5-0.7,0.5h-1.6
				c0.1,0.2,0.1,0.3,0.1,0.5c0,0.7-0.3,0.8-1.1,1.3c-0.3,4.2-0.8,9.6-4.7,15.2c1.9,1.6,3.9,3.1,8.2,4.9v0.4
				C438,95,437,95.9,436.6,97.2z M405.7,70.4c-1.6,0-2-1.1-2-1.8c0-0.4,0-1.8,0-2.5c0-1.1-0.8-1.8-1.6-2.7l0.3-0.4
				c1.2,0.3,5.6,1.4,5.6,4.9C408,68.1,407.9,70.4,405.7,70.4z M412.2,85.1l-2,4.7c0.9,0.1,1.6,0.2,2.2,0.3c0.9-1.6,1.4-3,1.8-5
				L412.2,85.1L412.2,85.1z M423.2,75.8c-1,0.9-1.5,1.3-2.2,1.7c0.1,1-0.4,2.9-2.3,2.9c-1.6,0-2-1.1-2.5-2.5c-0.4-1.2-1.6-3.4-2.5-4
				v7.1c0.4,0.1,0.8,0.3,0.8,0.7c0,0.5-0.3,0.5-1.1,0.9l-0.7,1.6h4.3l1.6-2.3c0.2-0.3,0.3-0.4,0.6-0.4c0.3,0,0.5,0.1,0.8,0.4
				l2.5,2.1c0.2,0.2,0.3,0.4,0.3,0.7c0,0.4-0.3,0.5-0.8,0.5h-2c0,0.7-0.3,0.8-1,1.2c-0.9,2.1-1.6,3.6-2.5,5.1
				c1.1,0.5,3.2,1.6,3.2,3.8c0,0.7-0.2,1.1-0.3,1.3c3.2-2.2,5.3-4.5,7.2-7.3C425.5,87.5,423.5,83.2,423.2,75.8z M426.1,72.1
				c-0.7,1.1-1.1,1.6-1.6,2.3c0.7,4,1.7,7.9,3.8,11.3c1.8-4.3,2.5-8.9,2.7-13.7L426.1,72.1L426.1,72.1z"/>
		</g>
		<g>
			<g>
				<path class="st2" d="M334.2,86.4c-1.9,0-2.5-1.9-3-3.6c-0.8-2.9-1.9-3.8-2.7-4.3v17.1c0,1.7-2.1,2.3-3.6,2.3
					c-1.3,0-1.3-0.4-1.3-1.4V81.2c-1.8,1.4-3.7,2.3-6.1,3.3l-0.2-0.4c2.4-2,4.2-4.1,6.3-6.5v-2l1.5,0.2c1.5-2.4,1.8-3.2,3.1-5.9
					h-9.3l-0.5-0.9h5.3v-8.2l5.1,0.5c0.4,0,0.8,0.3,0.8,0.7s-0.1,0.5-1.3,1V69h0.2l1.6-2.3c0,0,0.5-0.5,1.1-0.5c0.3,0,0.8,0.2,1,0.4
					l2.7,2.5c0.2,0.2,0.4,0.7,0.4,1c0,0.7-0.2,0.8-2,1.3c-1.5,2-2.8,3.5-4.5,5.1c0.2,0.1,0.5,0.3,0.5,0.6s-0.1,0.4-0.5,0.8
					c3.4,0.7,7.5,2.9,7.5,6C336.5,84.8,335.8,86.4,334.2,86.4z M355.1,95.6h-24.3l-0.5-1h10.2V76.2h-7.8l-0.5-0.9h8.2V60.6l5.2,0.4
					c0.3,0,1.2,0.1,1.2,0.7c0,0.6-0.8,0.9-1.3,1.1v12.6h2l2.1-3.1c0.2-0.2,0.3-0.4,0.7-0.4c0.3,0,0.5,0.2,0.8,0.4l2.9,2.7
					c0,0,0.4,0.4,0.4,0.8s-0.3,0.5-0.7,0.5h-8.2v18.4h2.9l2.4-3.3c0.1-0.2,0.3-0.4,0.7-0.4c0.3,0,0.5,0.2,0.7,0.4l3.1,3
					c0,0,0.4,0.4,0.4,0.8C355.8,95.4,355.4,95.6,355.1,95.6z"/>
				<path class="st2" d="M391.1,98c-1.4,0-1.9-0.6-4-2.8c-1.6-1.6-4.5-3.7-8.7-4.5v-0.4c0.9-0.1,2-0.2,3.8-0.2c2.8,0,4.3,0.3,5,0.5
					v-1.1h-14.1l3.6,2.3c0.5,0.3,0.6,0.5,0.6,0.9c0,0.6-0.2,0.6-2,0.7c-5.4,2.5-8.6,3.9-15.4,4.2v-0.4c6.4-2,9.8-6,10.7-7.7h-1.6
					c0,0.7,0,1-0.4,1.4c-0.5,0.5-2,1-3.7,1c-1.1,0-1.2-0.5-1.2-1.4V72.6l2.2,0.8c-0.1-0.3-0.1-0.4-0.1-0.7V60.8l5,2h14.8l1.1-1.3
					c0.4-0.5,0.8-0.8,1.3-0.8c0.4,0,0.8,0.2,1.2,0.4l2.7,2c0.3,0.2,0.5,0.5,0.5,0.8c0,0.5-1.3,1.6-1.6,1.8v5.5
					c0,0.6-0.2,0.8-0.6,1.1c0.3,0.2,0.5,0.3,0.6,0.3l2.2,1.7c0.3,0.3,0.6,0.5,0.6,1c0,0.3-0.1,0.4-1.1,1.5v12.6
					c0,0.8-0.1,1.6-2.1,1.9c1.3,0.4,3.5,1.1,3.5,3.7C393.6,95.4,393.5,98,391.1,98z M386.7,73.1c-0.9,0-1-0.4-1-1.1v-0.8h-15.3
					c0,1.5,0,2.1-3.3,2.5l2,0.7H387l1.2-1.5C387.7,73,387,73.1,386.7,73.1z M387.2,75.3h-18.4V79h18.4V75.3z M387.2,80h-18.4v3.8
					h18.4V80z M387.2,84.7h-18.4v4h18.4V84.7z M385.8,63.7h-15.3v6.6h15.3V63.7z"/>
				<path class="st2" d="M435.3,95.8c-0.2,0.6-0.5,1.3-0.7,1.3c-0.3,0-1.8-0.9-2.8-1.6c-2.6-1.7-4.1-3.7-4.8-4.6
					c-3.8,3.6-7.9,5.3-12.2,6.4l-0.1-0.4c0.5-0.3,0.8-0.4,1.3-0.6c-1.5,0-2-0.9-2.1-1.1c-0.2-0.3-1.1-1.7-1.3-2
					c-1.9,1.7-5.7,3.6-12,4.2V97c1.7-0.5,6.1-1.6,9.5-6.4c-0.5-0.3-1-0.6-1.6-0.9l-0.5,1.3c-0.5,1.1-2.3,1.1-2.8,1.1
					c-0.4,0-2.2-0.1-2.2-1.1c0-0.2,0.1-0.5,0.2-0.6c1.1-2.2,2.3-5,3.1-6.6h-5.6l-0.5-1h6.5l1.5-3.1v-3.8c-2.3,2-4.8,3.7-7.9,4.8
					l-0.2-0.4c3.6-2.9,4.9-5.2,6.3-9.6h-4.9l-0.5-0.9h7.3V61l4.9,0.3c0.5,0,0.8,0.4,0.8,0.6c0,0.5-0.6,0.8-1.1,1v5.8
					c0.8-2.1,1.7-4.9,2.3-7l4.9,1.6c0.2,0.1,0.4,0.3,0.4,0.5c0,0.5-0.3,0.5-1.4,0.7c-1.6,1.7-4.2,4.2-5.6,5.3h2.1l1.6-2.3
					c0.1-0.2,0.3-0.4,0.7-0.4c0.3,0,0.5,0.1,0.8,0.4l2.5,2c0.2,0.2,0.3,0.4,0.3,0.6c0,0.6-0.5,0.6-0.8,0.6h-7.7v0.8
					c1.8,0.2,5.6,1.1,7,3.5c2.6-3.8,3.6-9.3,4-14.2l6.2,0.8c0.4,0,0.8,0.3,0.8,0.7c0,0.6-0.6,0.8-1.4,1c-0.6,1.2-1.8,3.8-3.5,6.6
					h5.9l1.9-2.8c0.1-0.2,0.3-0.4,0.7-0.4c0.3,0,0.5,0.2,0.8,0.4l2.8,2.5c0.2,0.1,0.4,0.3,0.4,0.7c0,0.4-0.4,0.5-0.7,0.5H436
					c0.1,0.2,0.1,0.3,0.1,0.5c0,0.7-0.3,0.8-1.1,1.3c-0.3,4.2-0.8,9.6-4.7,15.2c1.9,1.6,3.9,3.1,8.2,4.9V93
					C436.6,93.6,435.6,94.6,435.3,95.8z M404.4,69c-1.6,0-2-1.1-2-1.8c0-0.4,0-1.8,0-2.5c0-1.1-0.8-1.8-1.6-2.7l0.3-0.4
					c1.2,0.3,5.6,1.4,5.6,4.9C406.6,66.7,406.5,69,404.4,69z M410.8,83.8l-2,4.7c0.9,0.1,1.6,0.2,2.2,0.3c0.9-1.6,1.4-3,1.8-5
					L410.8,83.8L410.8,83.8z M421.9,74.5c-1,0.9-1.5,1.3-2.2,1.7c0.1,1-0.4,2.9-2.3,2.9c-1.6,0-2-1.1-2.5-2.5
					c-0.4-1.2-1.6-3.4-2.5-4v7.1c0.4,0.1,0.8,0.3,0.8,0.7c0,0.5-0.3,0.5-1.1,0.9l-0.7,1.6h4.3l1.6-2.3c0.2-0.3,0.3-0.4,0.6-0.4
					c0.3,0,0.5,0.1,0.8,0.4l2.5,2.1c0.2,0.2,0.3,0.4,0.3,0.7c0,0.4-0.3,0.5-0.8,0.5h-2c0,0.7-0.3,0.8-1,1.2
					c-0.9,2.1-1.6,3.6-2.5,5.1c1.1,0.5,3.2,1.6,3.2,3.8c0,0.7-0.2,1.1-0.3,1.3c3.2-2.2,5.3-4.5,7.2-7.3
					C424.2,86.1,422.1,81.8,421.9,74.5z M424.7,70.8c-0.7,1.1-1.1,1.6-1.6,2.3c0.7,4,1.7,7.9,3.8,11.3c1.8-4.3,2.5-8.9,2.7-13.7
					L424.7,70.8L424.7,70.8z"/>
			</g>
		</g>
	</g>
	<path class="st2" d="M227,40.6c8.2,0,14.9,6.7,14.9,14.9s-6.7,14.9-14.9,14.9c-8.2,0-14.9-6.7-14.9-14.9S218.7,40.6,227,40.6z
		 M259.1,127.9c0,3.4-2.8,6.2-6.2,6.2c-3.5,0-6.2-2.8-6.2-6.2V95.2h-2.5v39.1l0,0v45c0,0.2,0,0.3,0,0.5c0,4.4-3.5,7.9-7.9,7.9
		s-7.9-3.5-7.9-7.9v-45.5h-4.6v45c0,0.2,0,0.3,0,0.5c0,4.4-3.6,7.9-8,7.9c-4.4,0-7.9-3.5-7.9-7.9V95.2h-2.8v32.3c0,0.1,0,0.1,0,0.2
		c0,3.4-2.8,6.2-6.2,6.2s-6.2-2.8-6.2-6.2V96.4c0-13,10.5-23.5,23.5-23.5h19.4c13,0,23.5,10.5,23.5,23.5L259.1,127.9L259.1,127.9z"
		/>
	<path class="st2" d="M126.4,106.1c4.5,0,8.1,3.6,8.1,8.1c0,4.5-3.6,8.1-8.1,8.1c-4.5,0-8.1-3.6-8.1-8.1
		C118.4,109.7,122,106.1,126.4,106.1z M143.8,153.2c0,1.8-1.6,3.4-3.4,3.4s-3.4-1.5-3.4-3.4v-17.6h-1.4v21.1l0,0v24.3
		c0,0.1,0,0.2,0,0.3c0,2.3-1.9,4.3-4.3,4.3c-2.3,0-4.3-1.9-4.3-4.3v-24.6h-2.4v24.3c0,0.1,0,0.2,0,0.3c0,2.3-1.9,4.3-4.3,4.3
		c-2.3,0-4.3-1.9-4.3-4.3v-45.6h-1.6v17.5v0.1c0,1.8-1.6,3.4-3.4,3.4c-1.8,0-3.4-1.5-3.4-3.4v-16.9c0-7,5.6-12.7,12.7-12.7H131
		c7,0,12.7,5.6,12.7,12.7L143.8,153.2L143.8,153.2z"/>
	<path class="st2" d="M168.3,70.9c6.3,0,11.4,5,11.4,11.4c0,6.3-5,11.4-11.4,11.4c-6.3,0-11.4-5.1-11.4-11.4
		C156.9,76,162,70.9,168.3,70.9z M192.7,137.3c0,2.6-2.1,4.8-4.8,4.8c-2.6,0-4.8-2.1-4.8-4.8v-24.7h-1.9v29.7l0,0v34.2
		c0,0.1,0,0.3,0,0.4c0,3.3-2.7,6-6,6c-3.3,0-6-2.7-6-6v-34.6h-3.5v34.2c0,0.1,0,0.3,0,0.4c0,3.3-2.7,6-6,6s-6-2.7-6-6v-64.3h-2.1
		v24.7c0,0.1,0,0.1,0,0.1c0,2.6-2.1,4.8-4.8,4.8c-2.6,0-4.8-2.1-4.8-4.8v-23.9c0-9.9,8-17.9,17.9-17.9h14.8c9.9,0,17.9,8,17.9,17.9
		v24H192.7z"/>
</g>
<g>
	<g>
		<g>
			<path class="st2" d="M1127.1,178.5v-9.1l36-27.5v-14.2h-23.5v-7c3.1-0.4,6.4-0.5,9.5-0.5c7.2,0,15.2,0.9,21.7,2.5v22.6
				L1127.1,178.5z M1127.5,140.8v-18c2.3-0.6,5-1.2,7.9-1.5v19.4H1127.5z M1171.3,182.1h-41.5V182l9.5-7.2h31.9L1171.3,182.1
				L1171.3,182.1z"/>
			<path class="st2" d="M1197.1,147.3c4.7-0.7,10.8-1.1,15.3-1.1c6.3,0,14.7,0.7,21.4,2v32.5c-2.4,0.5-5.1,1.2-7.9,1.4v-28.3h-36.8
				v-32.4h7.9V147.3z M1221.9,175.5v7c-3.3,0.4-6.8,0.5-10.2,0.5c-7.7,0-15.7-0.9-22.3-2.4v-18.1h7.9v12.9L1221.9,175.5
				L1221.9,175.5z M1234,128.6h-32.5v-7.3h32.5V128.6z"/>
			<path class="st2" d="M1253.9,182.1v-9.7h9.8v9.7H1253.9z"/>
			<path class="st2" d="M1289.3,128.6v9.5h-7.9v-16.9h37.1l-3.9,7.3L1289.3,128.6L1289.3,128.6z M1300.2,182.1h-8.8l32-60.8h4.6v6.5
				L1300.2,182.1z"/>
		</g>
		<g>
			<g>
				<path class="st2" d="M1126,177.4v-9.1l36-27.5v-14.2h-23.5v-7c3.1-0.4,6.4-0.5,9.5-0.5c7.2,0,15.2,0.9,21.7,2.5v22.6L1126,177.4
					z M1126.4,139.7v-18c2.3-0.6,5-1.2,7.9-1.5v19.4H1126.4z M1170.3,180.9h-41.5v-0.1l9.5-7.2h31.9L1170.3,180.9L1170.3,180.9z"/>
				<path class="st2" d="M1196.1,146.2c4.7-0.7,10.8-1.1,15.3-1.1c6.3,0,14.7,0.7,21.4,2v32.5c-2.4,0.5-5.1,1.2-7.9,1.4v-28.4h-36.8
					v-32.4h7.9V146.2z M1220.7,174.4v7c-3.3,0.4-6.8,0.5-10.2,0.5c-7.7,0-15.7-0.9-22.3-2.4v-18.1h7.9v12.9L1220.7,174.4
					L1220.7,174.4z M1233,127.5h-32.5v-7.3h32.5V127.5z"/>
				<path class="st2" d="M1252.9,180.9v-9.7h9.8v9.7H1252.9z"/>
				<path class="st2" d="M1288.3,127.5v9.5h-7.9v-16.9h37.1l-3.9,7.3L1288.3,127.5L1288.3,127.5z M1299.1,180.9h-8.8l32-60.8h4.6
					v6.5L1299.1,180.9z"/>
			</g>
		</g>
	</g>
	<g>
		<g>
			<path class="st2" d="M1078.7,80.9h-15.1v12.6c0,1.6-2.3,2.3-3.8,2.3c-1.6,0-1.6-0.8-1.6-1.3V80.9h-15.6L1042,80h16.1V62.4h-13.4
				l-0.5-0.9h26.1l2-2.5c0.2-0.2,0.3-0.4,0.7-0.4c0.3,0,0.4,0.1,0.8,0.4l2.8,2.1c0.2,0.1,0.4,0.4,0.4,0.8c0,0.4-0.4,0.5-0.7,0.5
				H1065c0.2,1-0.5,1.4-1.2,1.6v15.8h8.5l2.5-2.8c0.3-0.3,0.3-0.4,0.7-0.4c0.3,0,0.5,0.2,0.8,0.4l3,2.4c0.1,0.1,0.4,0.4,0.4,0.8
				C1079.4,80.8,1079.1,80.9,1078.7,80.9z M1052.8,78.4c-0.8,0-2.8-0.4-2.8-2.8c0-0.4,0.1-2,0.1-2.4c0-3.9-1.9-6.1-4.3-8.2l0.2-0.4
				c6.4,1.4,10.2,6.2,10.2,9.7C1056.3,75.8,1055.3,78.4,1052.8,78.4z M1074.3,68.8c-2.9,4.5-6.9,8.1-9.7,9.6l-0.3-0.3
				c2.4-3.5,3.9-8.8,4.5-13.2l6.3,2.4c0.3,0.1,0.8,0.3,0.8,0.8C1075.8,68.6,1075.3,68.6,1074.3,68.8z"/>
			<path class="st2" d="M1112.9,79.4c-4.4,3.1-7.8,5.1-11.7,7.6c-0.4,1.4-0.4,1.6-0.9,1.6c-0.3,0-0.5-0.3-0.6-0.5l-2.8-5.2
				c-4.4,3.2-7.6,5.1-10.3,6.8c-0.2,1.1-0.3,1.6-1,1.6c-0.4,0-0.7-0.5-0.7-0.8l-2.2-6.4c1.9-0.3,3.5-0.5,5.4-1V69.7h-5l-0.5-1h5.5
				v-10l5.7,0.6c0.3,0,0.7,0.1,0.7,0.6c0,0.6-0.5,0.8-1.3,1.2v7.8h0.7l2-2.6c0.1-0.2,0.3-0.4,0.7-0.4c0.3,0,0.6,0.3,0.8,0.4l2,2.2
				c0.8-3.2,1.2-6.5,1.3-9.8l6.8,1.6c0.3,0.1,0.8,0.2,0.8,0.6c0,0.5-0.1,0.5-1.6,1.2c-0.8,2.3-1.5,3.8-2,4.9h8.8l1.5-1.6
				c0.3-0.3,0.4-0.5,1-0.5c0.2,0,0.6,0.1,0.8,0.3l3.2,2.5c0.2,0.2,0.4,0.6,0.4,0.9c0,0.7-0.5,1.3-1.4,2c0.1,8.4,0,15.1-2.1,21.2
				c-1.1,2.8-2.4,4.4-5.9,4.4c-1.7,0-1.7-0.3-1.7-0.7c0-0.3,0.2-1.4,0.2-1.6c0-0.3-0.1-1.3-1.2-1.6c-1-0.4-2-0.7-4.9-1.3l0.1-0.5
				c0.5,0.1,4.4,0.4,6.1,0.4c0.9,0,1.6-0.2,2.2-1.1c0.9-1.4,2.3-5.4,2.3-14.2c0-3.4-0.1-5.7-0.3-7.7h-9.4c-1.6,2.8-4.4,6.7-9,10.1
				l-0.3-0.3c1.5-1.6,2.9-3.8,4.3-7.8h-5.7v12.2c2.3-0.5,3.4-0.9,6.1-1.7l0.2,0.4c-0.8,0.7-1,0.8-2.1,1.6c5.2-0.8,10.4-1.8,15.3-3.3
				L1112.9,79.4z M1106.1,74.3l1.8-2.3c0.3-0.3,0.5-0.4,0.7-0.4s0.4,0.1,0.8,0.4l2.3,2c0,0,0.4,0.4,0.4,0.8c0,0.4-0.3,0.6-0.7,0.6
				h-11.6l-0.5-1L1106.1,74.3L1106.1,74.3z"/>
			<path class="st2" d="M1160.2,84.3h-12.7v9.3c0,0.9-0.5,1.2-1.4,1.6c-0.7,0.3-2,0.7-2.6,0.7c-1.2,0-1.6-0.5-1.6-1.1V84.3h-18.1
				l-0.5-1h6.5V70.9l5.5,2.4h6.5v-8.1h-8.4c-3,4.2-5.3,6.6-10.1,9.4l-0.3-0.3c3.8-4.9,5.8-9.7,7.2-16l6.4,1.6
				c0.4,0.1,0.8,0.3,0.8,0.6c0,0.5-0.3,0.6-1.4,0.9c-0.5,0.8-0.9,1.4-1.9,2.9h17.7l2.8-3.1c0.2-0.3,0.3-0.4,0.7-0.4
				c0.3,0,0.5,0.1,0.7,0.4l3.2,2.7c0.3,0.2,0.4,0.5,0.4,0.8c0,0.4-0.4,0.5-0.8,0.5h-11c0.2,0.1,0.4,0.3,0.4,0.6
				c0,0.5-0.4,0.6-0.9,0.8v6.7h3.4l2.4-2.8c0.2-0.3,0.3-0.4,0.7-0.4c0.3,0,0.5,0.2,0.8,0.4l2.8,2.5c0.2,0.2,0.4,0.4,0.4,0.8
				c0,0.4-0.4,0.5-0.7,0.5h-9.7v9h5.4l2.8-3.5c0.2-0.3,0.3-0.4,0.7-0.4c0.3,0,0.5,0.2,0.7,0.4l3.3,3.2c0.2,0.2,0.4,0.4,0.4,0.8
				C1160.9,84.1,1160.6,84.3,1160.2,84.3z M1142,74.3h-6.8v9h6.8V74.3z"/>
			<path class="st2" d="M1185.1,69.5h-20.7l-0.5-1h3.3v-8l4.9,0.5c0.3,0,0.5,0.1,0.5,0.6c0,0.5-0.3,0.6-1.3,1.1v5.8h1.8V58.4
				l5.1,0.5c0.3,0,0.8,0.1,0.8,0.6c0,0.3-0.1,0.6-1.4,1.1v3.1h1.9l1.2-1.6c0.1-0.2,0.3-0.4,0.7-0.4c0.2,0,0.3,0,0.8,0.3l2.2,1.5
				c0.2,0.1,0.4,0.3,0.4,0.7c0,0.4-0.4,0.5-0.7,0.5h-6.4v4.1h2.8l1.2-1.7c0.1-0.2,0.3-0.4,0.7-0.4c0.2,0,0.4,0,0.8,0.3l2,1.5
				c0.2,0.1,0.5,0.3,0.5,0.8C1185.8,69.4,1185.4,69.5,1185.1,69.5z M1200.1,75c0,0.2-0.1,0.7-0.7,0.7c-0.5,0-0.8-0.3-1.1-0.8
				c-2.8-3.6-4.4-7.1-5.1-11.5c-2.4,5.1-6,8.5-6.8,9.3h5.1l1.1-1.6c0.1-0.2,0.3-0.4,0.7-0.4c0.3,0,0.6,0.3,0.8,0.3l2,1.4
				c0.2,0.1,0.4,0.3,0.4,0.7c0,0.4-0.4,0.5-0.7,0.5h-9l-0.4-0.7c-0.3,0.3-1.7,1.6-2.8,2.3v2.7h11.5l1.4-1.4c0.3-0.3,0.4-0.4,0.8-0.4
				c0.3,0,0.5,0.1,0.8,0.3l2.5,2.2c0.1,0.1,0.3,0.3,0.3,0.7c0,0.3,0,0.6-1.2,1.7v9.1c0,2.9-3.1,2.9-4.1,2.9c-0.7,0-0.8,0-0.8-0.5
				c0-2.6-0.4-2.8-2.6-3.4v5.1c0,1.3-2.6,1.4-3.8,1.4c-0.7,0-1-0.2-1-1V78.8h-4v14.9c0,0.5,0,0.7-1.2,1.1c-0.4,0.1-1.1,0.4-1.6,0.4
				c-0.9,0-1-0.5-1-0.9v-1.6h-10.3v1.3c0,0.8-2,1.5-2.7,1.5c-0.5,0-1.2-0.1-1.2-0.8V70.5l4.1,0.3c0.8,0,0.8,0.7,0.7,0.9
				c0.9,0.7,1.9,1.6,2.4,2.6v-4l4.1,0.3c0.1,0,0.7,0.2,0.7,0.6c0,0.5-0.6,0.9-1.1,1.1v4.5c1-2.1,1.2-4.4,1.3-5.3l2,0.5v-1.5l3.6,0.3
				c0.5,0,1.1,0.1,1.1,0.6c0,0.5-0.3,0.6-1,1.1v1.5c4.3-4.9,5.2-13,5.5-15.4l6.1,1.6c0.3,0.1,0.8,0.4,0.8,0.8c0,0.9-0.8,1-1.6,1
				c1.9,5.6,6.9,8.8,8.1,9.5v0.4C1200.5,72.4,1200.3,73.7,1200.1,75z M1172.9,77c-0.3,0.5-0.9,0.7-1.4,0.7c-0.6,0-1.4-0.3-1.4-1.3
				c0-0.3,0.2-1.9,0.2-2.3c0-0.8-0.2-1.3-0.5-1.7c-0.2,0-0.2,0-0.4,0.1v6h3.3L1172.9,77L1172.9,77z M1169.5,79.4v9.1
				c1.6-3.1,2.2-7.7,2.3-9.1H1169.5z M1179.8,88c-0.3,0.1-0.6,0.4-1.3,0.4c-1.1,0-1.4-0.5-1.4-1.5c0-0.4,0.2-2,0.2-2.5
				c0-1-0.2-1.6-0.8-2.3v7.7c0,0.4,0,0.9-0.9,1.2c-0.4,0.1-1.4,0.4-1.7,0.4c-1,0-1.1-0.6-1.1-1v-4.7c-0.9,1.6-1.9,3.2-3.3,4.3v1.9
				h10.3L1179.8,88L1179.8,88z M1179.8,74.7c-1.1,1.5-2,2.7-3.3,3.7v0.2h1.6l0.5-0.8c0.3-0.4,0.3-0.4,0.5-0.4s0.2,0.1,0.7,0.6
				L1179.8,74.7L1179.8,74.7z M1179.8,79.4h-3.3v0.4c1.2,0.6,2.3,1.5,3.3,2.4V79.4z M1195.5,78.8h-2.1c0,0.1,0.1,0.2,0.1,0.4
				c0,0.5-0.2,0.8-1.3,1.4v7.7c3.3,0.2,3.3-0.2,3.3-1.4V78.8z"/>
		</g>
		<g>
			<g>
				<path class="st2" d="M1077.4,79.5h-15.1v12.6c0,1.6-2.3,2.3-3.8,2.3c-1.6,0-1.6-0.8-1.6-1.3V79.5h-15.6l-0.5-0.9h16.1V61.1
					h-13.4l-0.5-0.9h26.1l2-2.5c0.2-0.2,0.3-0.4,0.7-0.4c0.3,0,0.4,0.1,0.8,0.4l2.8,2.1c0.2,0.1,0.4,0.4,0.4,0.8
					c0,0.4-0.4,0.5-0.7,0.5h-11.5c0.2,1-0.5,1.4-1.2,1.6v15.8h8.5l2.5-2.8c0.3-0.3,0.3-0.4,0.7-0.4c0.3,0,0.5,0.2,0.8,0.4l3,2.4
					c0.1,0.1,0.4,0.4,0.4,0.8C1078.1,79.4,1077.7,79.5,1077.4,79.5z M1051.5,77c-0.8,0-2.8-0.4-2.8-2.8c0-0.4,0.1-2,0.1-2.4
					c0-3.9-1.9-6.1-4.3-8.2l0.2-0.4c6.4,1.4,10.2,6.2,10.2,9.7C1055,74.5,1054,77,1051.5,77z M1072.9,67.4c-2.9,4.5-6.9,8.1-9.7,9.6
					l-0.3-0.3c2.4-3.5,3.9-8.8,4.5-13.2l6.3,2.4c0.3,0.1,0.8,0.3,0.8,0.8C1074.5,67.2,1073.9,67.3,1072.9,67.4z"/>
				<path class="st2" d="M1111.5,78.1c-4.4,3.1-7.8,5.1-11.7,7.6c-0.4,1.4-0.4,1.6-0.9,1.6c-0.3,0-0.5-0.3-0.6-0.5l-2.8-5.2
					c-4.4,3.2-7.6,5.1-10.3,6.8c-0.2,1.1-0.3,1.6-1,1.6c-0.4,0-0.7-0.5-0.7-0.8l-2.2-6.4c1.9-0.3,3.5-0.5,5.4-1V68.4h-5l-0.5-1h5.5
					v-10l5.7,0.6c0.3,0,0.7,0.1,0.7,0.6c0,0.6-0.5,0.8-1.3,1.2v7.8h0.7l2-2.6c0.1-0.2,0.3-0.4,0.7-0.4c0.3,0,0.6,0.3,0.8,0.4l2,2.2
					c0.8-3.2,1.2-6.5,1.3-9.8l6.8,1.6c0.3,0.1,0.8,0.2,0.8,0.6c0,0.5-0.1,0.5-1.6,1.2c-0.8,2.3-1.5,3.8-2,4.9h8.8l1.5-1.6
					c0.3-0.3,0.4-0.5,1-0.5c0.2,0,0.6,0.1,0.8,0.3l3.2,2.5c0.2,0.2,0.4,0.6,0.4,0.9c0,0.7-0.5,1.3-1.4,2c0.1,8.4,0,15.1-2.1,21.2
					c-1.1,2.8-2.4,4.4-5.9,4.4c-1.7,0-1.7-0.3-1.7-0.7c0-0.3,0.2-1.4,0.2-1.6c0-0.3-0.1-1.3-1.2-1.6c-1-0.4-2-0.7-4.9-1.3l0.1-0.5
					c0.5,0.1,4.4,0.4,6.1,0.4c0.9,0,1.6-0.2,2.2-1.1c0.9-1.4,2.3-5.4,2.3-14.2c0-3.4-0.1-5.7-0.3-7.7h-9.4c-1.6,2.8-4.4,6.7-9,10.1
					l-0.3-0.3c1.5-1.6,2.9-3.8,4.3-7.8h-5.7v12.2c2.3-0.5,3.4-0.9,6.1-1.7l0.2,0.4c-0.8,0.7-1,0.8-2.1,1.6
					c5.2-0.8,10.4-1.8,15.3-3.3L1111.5,78.1z M1104.7,72.9l1.8-2.3c0.3-0.3,0.5-0.4,0.7-0.4s0.4,0.1,0.8,0.4l2.3,2
					c0,0,0.4,0.4,0.4,0.8c0,0.4-0.3,0.6-0.7,0.6h-11.6l-0.5-1L1104.7,72.9L1104.7,72.9z"/>
				<path class="st2" d="M1158.8,82.9h-12.7v9.3c0,0.9-0.5,1.2-1.4,1.6c-0.7,0.3-2,0.7-2.6,0.7c-1.2,0-1.6-0.5-1.6-1.1V82.9h-18.1
					l-0.5-1h6.5V69.5l5.5,2.4h6.5v-8.2h-8.4c-3,4.2-5.3,6.6-10.1,9.4l-0.3-0.3c3.8-4.9,5.8-9.7,7.2-16l6.4,1.6
					c0.4,0.1,0.8,0.3,0.8,0.6c0,0.5-0.3,0.6-1.4,0.9c-0.5,0.8-0.9,1.4-1.9,2.9h17.7l2.8-3.1c0.2-0.3,0.3-0.4,0.7-0.4
					c0.3,0,0.5,0.1,0.7,0.4l3.2,2.7c0.3,0.2,0.4,0.5,0.4,0.8c0,0.4-0.4,0.5-0.8,0.5h-11c0.2,0.1,0.4,0.3,0.4,0.6
					c0,0.5-0.4,0.6-0.9,0.8v7h3.4l2.4-2.8c0.2-0.3,0.3-0.4,0.7-0.4c0.3,0,0.5,0.2,0.8,0.4l2.8,2.5c0.2,0.2,0.4,0.4,0.4,0.8
					c0,0.4-0.4,0.5-0.7,0.5h-9.7v9h5.4l2.8-3.5c0.2-0.3,0.3-0.4,0.7-0.4c0.3,0,0.5,0.2,0.7,0.4l3.3,3.2c0.2,0.2,0.4,0.4,0.4,0.8
					C1159.6,82.7,1159.2,82.9,1158.8,82.9z M1140.7,72.9h-6.8v9h6.8V72.9z"/>
				<path class="st2" d="M1183.6,68.2H1163l-0.5-1h3.3v-8l4.9,0.5c0.3,0,0.5,0.1,0.5,0.6s-0.3,0.6-1.3,1.1v5.8h1.8V57l5.1,0.5
					c0.3,0,0.8,0.1,0.8,0.6c0,0.3-0.1,0.6-1.4,1.1v3.1h1.9l1.2-1.6c0.1-0.2,0.3-0.4,0.7-0.4c0.2,0,0.3,0,0.8,0.3l2.2,1.5
					c0.2,0.1,0.4,0.3,0.4,0.7s-0.4,0.5-0.7,0.5h-6.4v4.1h2.8l1.2-1.7c0.1-0.2,0.3-0.4,0.7-0.4c0.2,0,0.4,0,0.8,0.3l2,1.5
					c0.2,0.1,0.5,0.3,0.5,0.8C1184.4,68.1,1183.9,68.2,1183.6,68.2z M1198.8,73.6c0,0.2-0.1,0.7-0.7,0.7c-0.5,0-0.8-0.3-1.1-0.8
					c-2.8-3.6-4.4-7.1-5.1-11.5c-2.4,5.1-6,8.5-6.8,9.3h5.1l1.1-1.6c0.1-0.2,0.3-0.4,0.7-0.4c0.3,0,0.6,0.3,0.8,0.3l2,1.4
					c0.2,0.1,0.4,0.3,0.4,0.7c0,0.4-0.4,0.5-0.7,0.5h-9l-0.4-0.7c-0.3,0.3-1.7,1.6-2.8,2.3v2.7h11.5l1.4-1.4
					c0.3-0.3,0.4-0.4,0.8-0.4c0.3,0,0.5,0.1,0.8,0.3l2.5,2.2c0.1,0.1,0.3,0.3,0.3,0.7c0,0.3,0,0.6-1.2,1.7v9.1
					c0,2.9-3.1,2.9-4.1,2.9c-0.7,0-0.8,0-0.8-0.5c0-2.6-0.4-2.8-2.6-3.4V93c0,1.3-2.6,1.4-3.8,1.4c-0.7,0-1-0.2-1-1V77.5h-4v14.9
					c0,0.5,0,0.7-1.2,1.1c-0.4,0.1-1.1,0.4-1.6,0.4c-0.9,0-1-0.5-1-0.9v-1.6h-10.3v1.3c0,0.8-2,1.5-2.7,1.5c-0.5,0-1.2-0.1-1.2-0.8
					V69.1l4.1,0.3c0.8,0,0.8,0.7,0.7,0.9c0.9,0.7,1.9,1.6,2.4,2.6v-4l4.1,0.3c0.1,0,0.7,0.2,0.7,0.6c0,0.5-0.6,0.9-1.1,1.1v4.5
					c1-2.1,1.2-4.4,1.3-5.3l2,0.5V69l3.6,0.3c0.5,0,1.1,0.1,1.1,0.6s-0.3,0.6-1,1.1v1.5c4.3-4.9,5.2-13,5.5-15.4l6.1,1.6
					c0.3,0.1,0.8,0.4,0.8,0.8c0,0.9-0.8,1-1.6,1c1.9,5.6,6.9,8.8,8.1,9.5v0.3C1199.2,71.1,1199,72.2,1198.8,73.6z M1171.4,75.6
					c-0.3,0.5-0.9,0.7-1.4,0.7c-0.6,0-1.4-0.3-1.4-1.3c0-0.3,0.2-1.9,0.2-2.3c0-0.8-0.2-1.3-0.5-1.7c-0.2,0-0.2,0-0.4,0.1v6h3.3
					L1171.4,75.6L1171.4,75.6z M1168.1,78.1v9.1c1.6-3.1,2.2-7.7,2.3-9.1H1168.1z M1178.4,86.5c-0.3,0.1-0.6,0.4-1.3,0.4
					c-1.1,0-1.4-0.5-1.4-1.5c0-0.4,0.2-2,0.2-2.5c0-1-0.2-1.6-0.8-2.3v7.7c0,0.4,0,0.9-0.9,1.2c-0.4,0.1-1.4,0.4-1.7,0.4
					c-1,0-1.1-0.6-1.1-1v-4.7c-0.9,1.6-1.9,3.2-3.3,4.3v1.9h10.3L1178.4,86.5L1178.4,86.5z M1178.4,73.3c-1.1,1.5-2,2.7-3.3,3.7v0.2
					h1.6l0.5-0.8c0.3-0.4,0.3-0.4,0.5-0.4c0.2,0,0.2,0.1,0.7,0.6L1178.4,73.3L1178.4,73.3z M1178.4,78.1h-3.3v0.5
					c1.2,0.6,2.3,1.5,3.3,2.4V78.1z M1194.1,77.5h-2.1c0,0.1,0.1,0.2,0.1,0.4c0,0.5-0.2,0.8-1.3,1.4v7.7c3.3,0.2,3.3-0.2,3.3-1.4
					V77.5z"/>
			</g>
		</g>
	</g>
	<g>
		<g>
			<path class="st2" d="M1383.7,175.8h-9.5c3,1.1,3.8,2.2,3.9,4.1l1.1-1.3c0.2-0.2,0.4-0.4,0.8-0.4c0.3,0,0.5,0.1,0.8,0.4l2.9,2.3
				c0.3,0.2,0.5,0.5,0.5,0.9c0,0.5-0.5,0.6-0.9,0.6H1371c0.5,3.9,1.1,5.9,1.6,7.8c0.6-1.5,1.2-3.1,1.8-6.4l6.7,2.7
				c0.5,0.2,0.6,0.4,0.6,0.7c0,0.9-0.8,0.9-1.9,0.9c-0.7,2.2-1.6,4.7-4.5,8c0.4,0.5,2.9,4.4,4.8,4.4c0.6,0,0.9-0.5,1.1-1.1
				c0.4-1,1.8-5.2,2.1-6.1l0.5,0.1c-0.5,3.3-1,6.4-1,7.3c0,0.2,0,0.8,0.5,1.6c0.6,1.2,1,1.7,1,2.5c0,1.6-1.4,2.9-2.9,2.9
				c-4.4,0-8.2-5.6-9.9-7.9c-3.6,2.9-8.8,6.3-14.1,7.1l-0.2-0.5c2.7-1.4,8.1-4.2,12.1-10.1c-0.6-1.3-2.1-4.3-3.2-9.7
				c-0.1,0.2-0.3,0.3-0.7,0.3h-3.7c-0.1,0.3-0.3,0.9-1.4,1v0.4c1.2,0.4,6.2,2.7,6.2,7.5c0,2.2-1,3.4-2.7,3.4c-1.5,0-1.9-1.3-1.9-2
				c0-0.4,0.2-2.2,0.2-2.6c0-1.6-0.3-3.4-1.7-4.5v11.2c0,3.5-3.8,3.6-5.5,3.6c-0.3,0-0.8,0-0.8-0.7c0-1.9,0-2.1-0.6-2.4
				c-0.7-0.4-1.3-0.6-3.6-1.3c-1.1,1.1-1.7,1.6-2.6,2.2l-0.3-0.3c3.6-4.8,3.7-10.8,3.6-13l4.8,1.2v-3.6h-5.1v1.1
				c0,3.6-1.6,11.9-8.8,18.2l-0.3-0.3c3-5,3.6-11.1,3.6-14.8v-12l5.8,2.3h14.9c-0.2-2.1-0.2-2.4-0.3-5.4h-23.6l-0.6-1.1h9.3V166
				l6.4,0.5c0.5,0,1,0.2,1,0.8c0,0.6-0.5,0.8-1.6,1.4v6.1h4.7v-11.1l6.3,0.6c0.4,0,0.8,0.1,0.8,0.7c0,0.5-0.2,0.6-1.6,1.4v2.3h7.3
				l1.7-2.5c0.1-0.2,0.4-0.4,0.8-0.4c0.4,0,0.7,0.3,0.9,0.4l3,2.1c0.2,0.1,0.5,0.4,0.5,0.9s-0.5,0.6-0.9,0.6H1366v5h11l2.3-2.6
				c0.3-0.3,0.4-0.5,0.8-0.5c0.2,0,0.5,0.1,0.8,0.4l3.2,2.3c0.1,0.1,0.5,0.4,0.5,0.9C1384.5,175.6,1384.1,175.8,1383.7,175.8z
				 M1365.4,182.3h-15.3v3.5h9.4l1.7-1.9c0.2-0.3,0.4-0.4,0.8-0.4c0.3,0,0.6,0.2,1,0.4l2.5,1.5c0.1,0.1,0.3,0.1,0.4,0.3
				C1365.7,184.4,1365.6,183.5,1365.4,182.3z M1355.3,192.1c-1.9,4.3-3.1,5.7-4.9,7.7c0,0,3,0.5,3.6,0.5c0.8,0,1.3-0.1,1.3-1.7
				V192.1z M1373.5,179.7c-0.1-1.6-0.2-2.4-2-3.6l0.2-0.3h-6l5.7,1.1c0.2,0,0.7,0.1,0.7,0.6c0,0.4-0.4,0.7-1.4,1.2
				c0,0.7,0,1.3,0.1,2.5h3.3C1373.5,180.6,1373.5,179.9,1373.5,179.7z"/>
		</g>
		<g>
			<g>
				<path class="st2" d="M1382,174.1h-9.5c3,1.1,3.8,2.2,3.9,4.1l1.1-1.3c0.2-0.2,0.4-0.4,0.8-0.4c0.3,0,0.5,0.1,0.8,0.4l2.9,2.3
					c0.3,0.2,0.5,0.5,0.5,0.9c0,0.5-0.5,0.6-0.9,0.6h-12.2c0.5,3.9,1.1,5.9,1.6,7.8c0.6-1.5,1.2-3.1,1.8-6.4l6.7,2.7
					c0.5,0.2,0.6,0.4,0.6,0.7c0,0.9-0.8,0.9-1.9,0.9c-0.7,2.2-1.6,4.7-4.5,8c0.4,0.5,2.9,4.4,4.8,4.4c0.6,0,0.9-0.5,1.1-1.1
					c0.4-1,1.8-5.2,2.1-6.1l0.5,0.1c-0.5,3.3-1,6.4-1,7.3c0,0.2,0,0.8,0.5,1.6c0.6,1.2,1,1.7,1,2.5c0,1.6-1.4,2.9-2.9,2.9
					c-4.4,0-8.2-5.6-9.9-7.9c-3.6,2.9-8.8,6.3-14.1,7.1l-0.2-0.5c2.7-1.4,8.1-4.2,12.1-10.1c-0.6-1.3-2.1-4.3-3.2-9.7
					c-0.1,0.2-0.3,0.3-0.7,0.3h-3.7c-0.1,0.3-0.3,0.9-1.4,1v0.4c1.2,0.4,6.2,2.7,6.2,7.5c0,2.2-1,3.4-2.7,3.4c-1.5,0-1.9-1.3-1.9-2
					c0-0.4,0.2-2.2,0.2-2.6c0-1.6-0.3-3.4-1.7-4.5v11.2c0,3.5-3.8,3.6-5.5,3.6c-0.3,0-0.8,0-0.8-0.7c0-1.9,0-2.1-0.6-2.4
					c-0.7-0.4-1.3-0.6-3.6-1.3c-1.1,1.1-1.7,1.6-2.6,2.2l-0.3-0.3c3.6-4.8,3.7-10.8,3.6-13l4.8,1.2v-3.6h-5.1v1.1
					c0,3.6-1.6,11.9-8.8,18.2l-0.3-0.3c3-5,3.6-11.1,3.6-14.8v-12l5.8,2.3h14.9c-0.2-2.1-0.2-2.4-0.3-5.4h-23.6l-0.6-1.1h9.3v-8.9
					l6.4,0.5c0.5,0,1,0.2,1,0.8c0,0.6-0.5,0.8-1.6,1.4v6.1h4.7v-11.1l6.3,0.6c0.4,0,0.8,0.1,0.8,0.7c0,0.5-0.2,0.6-1.6,1.4v2.3h7.3
					l1.7-2.5c0.1-0.2,0.4-0.4,0.8-0.4c0.4,0,0.7,0.3,0.9,0.4l3,2.1c0.2,0.1,0.5,0.4,0.5,0.9s-0.5,0.6-0.9,0.6h-13.4v5h11l2.3-2.6
					c0.3-0.3,0.4-0.5,0.8-0.5c0.2,0,0.5,0.1,0.8,0.4l3.2,2.3c0.1,0.1,0.5,0.4,0.5,0.9C1382.9,174,1382.4,174.1,1382,174.1z
					 M1363.9,180.7h-15.3v3.5h9.4l1.7-1.9c0.2-0.3,0.4-0.4,0.8-0.4c0.3,0,0.6,0.2,1,0.4l2.5,1.5c0.1,0.1,0.3,0.1,0.4,0.3
					C1364.2,182.9,1364,181.9,1363.9,180.7z M1353.8,190.5c-1.9,4.3-3.1,5.7-4.9,7.7c0,0,3,0.5,3.6,0.5c0.8,0,1.3-0.1,1.3-1.7V190.5
					z M1371.8,178.1c-0.1-1.6-0.2-2.4-2-3.6l0.2-0.3h-6l5.7,1.1c0.2,0,0.7,0.1,0.7,0.6c0,0.4-0.4,0.7-1.4,1.2c0,0.7,0,1.3,0.1,2.5
					h3.3C1371.9,179,1371.8,178.3,1371.8,178.1z"/>
			</g>
		</g>
	</g>
	<g>
		<path class="st2" d="M990.7,66.8c0-14.5-11.7-26.2-26.2-26.2s-26.2,11.7-26.2,26.2S950,93,964.5,93
			C979,92.9,990.7,81.3,990.7,66.8z"/>
		<polygon class="st2" points="964.5,165.7 972.9,157.4 966.3,109.3 972.9,102.7 964.5,94.3 956.2,102.7 962.8,109.3 956.2,157.4 		
			"/>
		<path class="st2" d="M981.4,100.2h-1l2.5,2.5l-5,5l-4.1,4.1l6.1,44.5l0.5,3.5l-2.5,2.5l-8.4,8.4l-5,5l-5-5l-8.4-8.4l-2.5-2.5
			l0.5-3.5l6.1-44.5l-4.1-4.1l-5-5l2.4-2.5h-0.9c-19.9,0-36,16.1-36,36v49.2h16.1v-51.1h7.1v51.1h58.7v-51.1h7.1v51.1h16.8v-49.2
			C1017.4,116.3,1001.3,100.3,981.4,100.2z"/>
	</g>
	<g>
		<path class="st2" d="M868.4,146.3c0-1,0.8-1.8,1.8-1.8h18.6c1,0,1.8,0.8,1.8,1.8v4.7h3.6v-4.7c0-3-2.4-5.4-5.4-5.4h-18.6
			c-3,0-5.4,2.4-5.4,5.4v4.7h3.6L868.4,146.3L868.4,146.3z"/>
		<path class="st2" d="M843.2,178.3v13.3c0,4,3.2,7.2,7.2,7.2h58.4c4,0,7.2-3.2,7.2-7.2v-13.3c-9.9,7.7-22.9,12-36.4,12
			C865.9,190.4,853.2,186.1,843.2,178.3z"/>
		<path class="st2" d="M908.8,153.2h-58.4c-4,0-7.2,3.2-7.2,7.2v13.3c9.5,8.3,22.7,13.1,36.4,13.1s26.9-4.8,36.4-13.1v-13.3
			C916,156.5,912.8,153.2,908.8,153.2z M881.8,169.5v7.7h-4.5v-7.7c-1.1-0.7-1.7-1.9-1.7-3.3c0-2.2,1.7-4,4-4c2.2,0,4,1.7,4,4
			C883.6,167.6,882.9,168.8,881.8,169.5z"/>
	</g>
</g>
<g>
	<path class="st3" d="M-123.4-158.1H-233v62.4h109.6V-158.1z M-196.5-146.8l22,1.2l9,10.7l-4.4,3.7l-7.4-8.7l-17.2-1l-22.4,18.9
		l-3.7-4.4L-196.5-146.8z M-195.9-120.7l-21.5,13l-3-4.9l25.1-15.3l18.6,16.5l20.5-34.5l20.4,13.7l-3.2,4.8l-15.3-10.3l-20.9,35.2
		L-195.9-120.7z M-139.2-104.3l-22-16.6l3.5-4.6l22,16.6L-139.2-104.3z"/>
	<path class="st3" d="M-123.4-85.3v-4.6H-233v4.6l-10,11.4h129.5L-123.4-85.3z M-143.8-79.6h-68.6v-5.8h68.6L-143.8-79.6
		L-143.8-79.6z"/>
</g>
<g>
	<path class="st3" d="M-277.4,7.7c2.4-1.2,4.1-3.8,4.1-6.7c0-4.1-3.4-7.5-7.5-7.5s-7.5,3.4-7.5,7.5c0,2.9,1.7,5.4,4.1,6.7
		c-3.4,0.4-6.1,3.3-6.1,6.8v8.9h19v-8.9C-271.3,10.9-274,8-277.4,7.7z"/>
	<rect x="-259.1" y="7.2" class="st3" width="65.2" height="16.2"/>
	<path class="st3" d="M-277.4,46.4c2.4-1.2,4.1-3.8,4.1-6.7c0-4.1-3.4-7.5-7.5-7.5s-7.5,3.4-7.5,7.5c0,2.9,1.7,5.4,4.1,6.7
		c-3.4,0.4-6.1,3.3-6.1,6.8v8.9h19v-8.9C-271.3,49.7-274,46.8-277.4,46.4z"/>
	<rect x="-259.1" y="46" class="st3" width="47.3" height="16.2"/>
	<path class="st3" d="M-277.4,85.2c2.4-1.2,4.1-3.8,4.1-6.7c0-4.1-3.4-7.5-7.5-7.5s-7.5,3.4-7.5,7.5c0,2.9,1.7,5.4,4.1,6.7
		c-3.4,0.4-6.1,3.3-6.1,6.8v8.9h19V92C-271.3,88.5-274,85.6-277.4,85.2z"/>
	<rect x="-259.1" y="84.8" class="st3" width="83.6" height="16.2"/>
</g>
<g>
	<rect x="-275.8" y="174.5" class="st3" width="9.2" height="48.3"/>
	<polygon class="st3" points="-254,222.8 -244.8,222.8 -244.8,158 -239.2,158 -249.4,142 -259.6,158 -254,158 	"/>
	<rect x="-297.5" y="200.5" class="st3" width="9.2" height="22.3"/>
	<path class="st3" d="M-223.5,242.5v-58.2h-12.3v4.9h7.3v46.7h-85.9v-46.7h28.5v-4.9h-33.4v58.2l-13.5,15.4H-210L-223.5,242.5z
		 M-244.3,250.7h-54v-4.9h54L-244.3,250.7L-244.3,250.7z"/>
</g>
<g>
	<path class="st3" d="M-113.4,299.7c6.6,0,12.1,5.4,12.1,12.1s-5.4,12-12.1,12c-6.6,0-12.1-5.4-12.1-12
		C-125.5,305.1-120.1,299.7-113.4,299.7z"/>
	<path class="st3" d="M-77.4,299.7c6,0,10.8,4.9,10.8,10.9s-4.9,10.8-10.8,10.8c-6,0-10.8-4.9-10.8-10.8
		C-88.3,304.5-83.4,299.7-77.4,299.7z"/>
	<path class="st3" d="M-141.4,355.6h-19.5v-14.4h-4v14.4h-5.9V342c0-7.9,6.5-14.4,14.4-14.4h14c3.4,0,6.6,1.2,9.2,3.4
		c-4.9,3.7-8.1,9.5-8.1,16.2L-141.4,355.6L-141.4,355.6z M-89.4,362.5h-7v-16.2h-4v16.2h-26.3v-16.2h-4v16.2h-6.7v-15.3
		c0-8.9,7.3-16.2,16.2-16.2h15.5c8.9,0,16.2,7.3,16.2,16.2L-89.4,362.5L-89.4,362.5z M-56,355.6h-5.9v-14.4h-4v14.4h-19.5v-8.5
		c0-6.6-3.2-12.5-8.1-16.2c2.6-2.1,5.8-3.3,9.2-3.3h14c7.9,0,14.4,6.5,14.4,14.4L-56,355.6L-56,355.6z"/>
	<path class="st3" d="M-149.4,299.7c6,0,10.8,4.9,10.8,10.9s-4.9,10.8-10.8,10.8c-6,0-10.8-4.9-10.8-10.8
		C-160.3,304.5-155.4,299.7-149.4,299.7z"/>
</g>
<g>
	<g>
		<g>
			<path class="st2" d="M379.1,428.7v-53.5h-5.5V368h13.4v60.8H379.1z"/>
			<path class="st2" d="M399,428.7V419h9.8v9.7H399z"/>
			<path class="st2" d="M454.3,422.2v7c-3.7,0.4-7.4,0.6-11.1,0.6c-8,0-16.6-1-23.1-2.5v-57.8c2.3-0.6,4.9-1.2,7.9-1.4v54.2H454.3z
				 M466.3,369.4v57.8c-2.4,0.6-5,1.2-7.9,1.4v-54.2h-26.3v-7c3.7-0.4,7.4-0.6,11.1-0.6C451.1,366.9,459.7,367.9,466.3,369.4z"/>
			<path class="st2" d="M511.2,422.2v7c-3.7,0.4-7.4,0.6-11.1,0.6c-8,0-16.6-1-23.1-2.5v-57.8c2.3-0.6,4.9-1.2,7.9-1.4v54.2H511.2z
				 M523.4,369.4v57.8c-2.4,0.6-5,1.2-7.9,1.4v-54.2h-26.3v-7c3.7-0.4,7.4-0.6,11.1-0.6C508.1,366.9,516.8,367.9,523.4,369.4z"/>
			<path class="st2" d="M568.3,422.2v7c-3.7,0.4-7.4,0.6-11.1,0.6c-8,0-16.6-1-23.1-2.5v-57.8c2.3-0.6,4.9-1.2,7.9-1.4v54.2H568.3z
				 M580.4,369.4v57.8c-2.4,0.6-5,1.2-7.9,1.4v-54.2h-26.2v-7c3.7-0.4,7.4-0.6,11.1-0.6C565.2,366.9,573.8,367.9,580.4,369.4z"/>
		</g>
		<g>
			<g>
				<path class="st2" d="M378,427.7v-53.5h-5.5v-7.3h13.4v60.8H378z"/>
				<path class="st2" d="M398,427.7V418h9.8v9.7H398z"/>
				<path class="st2" d="M453.2,421.2v7c-3.7,0.4-7.4,0.6-11.1,0.6c-8,0-16.6-1-23.1-2.5v-57.8c2.3-0.6,4.9-1.2,7.9-1.4v54.2H453.2z
					 M465.2,368.4v57.8c-2.4,0.6-5,1.2-7.9,1.4v-54.2h-26.3v-7c3.7-0.4,7.4-0.6,11.1-0.6C450,365.8,458.6,366.8,465.2,368.4z"/>
				<path class="st2" d="M510.2,421.2v7c-3.7,0.4-7.4,0.6-11.1,0.6c-8,0-16.6-1-23.1-2.5v-57.8c2.3-0.6,4.9-1.2,7.9-1.4v54.2H510.2z
					 M522.3,368.4v57.8c-2.4,0.6-5,1.2-7.9,1.4v-54.2h-26.3v-7c3.7-0.4,7.4-0.6,11.1-0.6C507.1,365.8,515.7,366.8,522.3,368.4z"/>
				<path class="st2" d="M567.2,421.2v7c-3.7,0.4-7.4,0.6-11.1,0.6c-8,0-16.6-1-23.1-2.5v-57.8c2.3-0.6,4.9-1.2,7.9-1.4v54.2H567.2z
					 M579.3,368.4v57.8c-2.4,0.6-5,1.2-7.9,1.4v-54.2h-26.3v-7c3.7-0.4,7.4-0.6,11.1-0.6C564.1,365.8,572.7,366.8,579.3,368.4z"/>
			</g>
		</g>
	</g>
	<g>
		<g>
			<path class="st2" d="M655.7,393.9c-3.8,6.9-9.4,10.5-15.8,10.5c-5.4,0-9.3-2.2-13.6-6.4c-3.3-3.2-6.1-5.1-10.6-5.1
				c-4.9,0-9.2,3.3-11.7,8.2l-4-2c3.8-6.9,9.4-10.5,15.8-10.5c5.4,0,9.3,2.2,13.6,6.4c3.3,3.2,6.1,5.1,10.6,5.1
				c4.9,0,9.2-3.3,11.7-8.2L655.7,393.9z"/>
		</g>
		<g>
			<g>
				<path class="st2" d="M654.9,393.2c-3.8,6.9-9.4,10.5-15.8,10.5c-5.4,0-9.3-2.2-13.6-6.4c-3.3-3.2-6.1-5.1-10.6-5.1
					c-4.9,0-9.2,3.3-11.7,8.2l-4-2c3.8-6.9,9.4-10.5,15.8-10.5c5.4,0,9.3,2.2,13.6,6.4c3.3,3.2,6.1,5.1,10.6,5.1
					c4.9,0,9.2-3.3,11.7-8.2L654.9,393.2z"/>
			</g>
		</g>
	</g>
	<g>
		<g>
			<path class="st2" d="M352.6,309.2v16c0,0.6-1.7,1.7-3.5,1.7c-0.6,0-1.7-0.1-1.7-1v-2.3h-6.7v1.6c0,1.8-3.6,1.9-3.6,1.9
				c-0.4,0-1.4-0.1-1.4-1.1v-6.1c-0.3,0.4-0.9,1.1-2.1,1.1c-2,0-2.1-1.6-2.1-2.1c-0.1-1.7-0.1-3.7-1.4-5.4v11.6
				c0,1.5-2.8,1.9-3.8,1.9c-0.7,0-1.3-0.3-1.3-1v-7.2c-3.3,4.1-6.2,5.2-7.4,5.7l-0.3-0.3c2.4-3,4.9-7.1,6.4-13.3h-4.9l-0.5-0.9h6.6
				V304l5.8,0.4c0.3,0,0.8,0.2,0.8,0.6c0,0.5-0.3,0.8-1.6,1.1v4h0.6l1.6-1.9c0.2-0.3,0.4-0.4,0.7-0.4c0.2,0,0.3,0,0.8,0.3l2,1.4V304
				l5.2,1.9h6.3l0.9-1.4c0.2-0.3,0.7-0.9,1.4-0.9c0.4,0,0.8,0.2,1,0.3l2.8,2.4c0.3,0.3,0.4,0.7,0.4,0.8
				C353.6,308,352.9,308.9,352.6,309.2z M320.8,340.2c-1.4,0-2.4-1.3-2.4-2.6c0-1.6,0.9-2.2,3.4-3.8c0.7-0.5,1.9-1.9,2.2-4.5h0.4
				c0.7,2.1,0.9,3.9,0.9,5.1C325.4,338.2,322.8,340.2,320.8,340.2z M343.3,340.3h-11.3h-0.9c-3.2,0-4-1.6-4-3.9v-7.7l6,0.6
				c0.3,0,0.5,0.2,0.5,0.5c0,0.4-0.1,0.5-1.5,1.1v3.3c0,0.6,0.2,1.5,1.9,1.5h7.1c1.6,0,2.3-1.9,3.8-6.3l0.4,0.1l-0.7,5
				c-0.1,0.5,0.3,0.8,0.7,1c0.3,0.1,1.3,0.8,1.3,2.1C346.7,339.1,345.4,340.3,343.3,340.3z M335.7,311.1H330v1.3
				c2.7,0.8,4.6,1.7,5.6,3.3V311.1z M338.8,335.1c-1.6,0-1.8-0.7-2.5-3.1c-0.3-0.9-0.9-2.9-3.1-3.8l0.1-0.4c1.5,0,8,0.1,8,4.9
				C341.1,334.1,340,335.1,338.8,335.1z M347.3,307.1h-6.7v4.6h6.7V307.1z M347.3,312.6h-6.7v4.6h6.7V312.6z M347.3,318.2h-6.7v4.7
				h6.7V318.2z M351.7,339.3c-0.6,0-2.5-0.3-2.6-2.5c-0.1-2.9-0.3-6.1-3.3-8.1l0.2-0.4c7.7,1.9,8.2,6.6,8.2,8.2
				C354.1,338.4,353,339.3,351.7,339.3z"/>
			<path class="st2" d="M394.8,313.2c-0.3,0-1.3-0.1-1.6-0.1c-1.3,0.5-2.3,1.1-5.7,2.6l1.6,1.3c0.3,0.2,0.4,0.5,0.4,0.7
				c0,0.4-0.3,0.5-0.8,0.5h-8.2c0.3,1-0.6,1.2-1.1,1.3v6.6h4.2l2.2-2.8c0.2-0.3,0.4-0.4,0.7-0.4s0.5,0.2,0.8,0.4l3.2,2.5
				c0.2,0.2,0.4,0.4,0.4,0.8c0,0.4-0.4,0.5-0.8,0.5h-10.7v8.6c0.7,0.1,1.6,0.2,3.7,0.2c5.2,0,8.9-0.5,11.9-1.3l0.2,0.4
				c-1.9,1.6-2,2.7-2,4.9c0,0.8,0,1-5.6,1c-7.8,0-11.2-0.8-14.8-3.9c-1.7-1.6-3.3-3.3-4.5-5.8c-1.4,2.8-3.8,7.1-10.3,9.7l-0.3-0.3
				c4.7-4.3,7.1-12.3,6.9-18.7l6.4,1.4c0.4,0.1,0.7,0.4,0.7,0.7c0,0.6-0.7,0.9-1.5,1.1c-0.3,1.5-0.6,2.8-1.3,4.8
				c1.4,2.5,3,3.7,5.4,4.9v-16.1h-10.8l-0.5-0.9h19.4l2.3-2.6c0.2-0.2,0.4-0.4,0.7-0.4c0.3,0,0.6,0.3,1.3,0.8
				c0.5-0.8,1.3-2.4,1.7-4.1h-23.8c0,2.8-1.5,6.5-4.1,6.5c-1.2,0-2.4-0.8-2.4-2.5c0-1.5,0.7-1.9,2-2.9c0.9-0.7,2.9-2,3.1-5.3h0.4
				c0.5,1.1,0.7,1.9,0.9,3.3h9.8V304l5.9,0.4c0.4,0,0.7,0.2,0.7,0.6c0,0.7-0.8,0.8-1.6,1.1v4.2h8.7l1.6-1.7c0.5-0.5,0.9-0.7,1.3-0.7
				c0.5,0,0.9,0.2,1.3,0.5l3.4,3.4c0.2,0.2,0.3,0.4,0.3,0.7C395.8,312.8,395.4,313.2,394.8,313.2z"/>
			<path class="st2" d="M435.5,329.4h-12.7v9.3c0,0.9-0.5,1.2-1.4,1.6c-0.7,0.3-2,0.7-2.6,0.7c-1.2,0-1.6-0.5-1.6-1.1v-10.5h-18.1
				l-0.5-1h6.5V316l5.5,2.4h6.5v-8.2h-8.4c-3,4.2-5.3,6.6-10.1,9.4l-0.3-0.3c3.8-4.9,5.8-9.7,7.2-16l6.4,1.6
				c0.4,0.1,0.8,0.3,0.8,0.6c0,0.5-0.3,0.6-1.4,0.9c-0.5,0.8-0.9,1.4-1.9,2.9h17.7l2.8-3.1c0.2-0.3,0.3-0.4,0.7-0.4
				c0.3,0,0.5,0.1,0.7,0.4l3.2,2.7c0.3,0.2,0.4,0.5,0.4,0.8c0,0.4-0.4,0.5-0.8,0.5h-11c0.2,0.1,0.4,0.3,0.4,0.6
				c0,0.5-0.4,0.6-0.9,0.8v6.7h3.4l2.4-2.8c0.2-0.3,0.3-0.4,0.7-0.4s0.5,0.2,0.8,0.4l2.8,2.5c0.2,0.2,0.4,0.4,0.4,0.8
				s-0.4,0.5-0.7,0.5h-9.7v9h5.4l2.8-3.5c0.2-0.3,0.3-0.4,0.7-0.4c0.3,0,0.5,0.2,0.7,0.4l3.3,3.2c0.2,0.2,0.4,0.4,0.4,0.8
				C436.3,329.2,435.8,329.4,435.5,329.4z M417.4,319.4h-6.8v9h6.8V319.4z"/>
			<path class="st2" d="M477.7,335.9c-1.5,0-2.8,0.5-4.1,3.7c-0.3,0.8-0.3,0.9-0.6,0.9c-0.5,0-4.3-1.9-8.5-7.4
				c-3,2.7-6.4,4.9-10.3,6c0,0.5,0,0.7-0.6,1.1c-0.8,0.5-1.6,0.8-2.6,0.8c-1.6,0-1.6-0.5-1.6-1.1v-12c-1.3,1.1-3.8,3-5.6,4.3
				c-0.3,0.2-0.5,0.4-1,0.8c-0.3,1.1-0.3,1.6-1.1,1.6c-0.2,0-0.5-0.1-0.5-0.5l-1.7-6.1c0.7-0.2,2.3-0.5,2.4-0.5v-18.8l5.4,0.5
				c0.3,0,0.8,0.2,0.8,0.7c0,0.6-0.5,0.8-1.3,1.1v15.7c0,0,2.4-0.5,2.6-0.5v-22.1l5.4,0.4c0.3,0,0.8,0.1,0.8,0.6
				c0,0.5-0.5,0.8-1.4,1.1v32c3.3-1.9,5.9-4.8,8.2-7.9c-4-7.6-4.5-16.6-4.6-21.4h-3l-0.5-0.9h15.4l1.6-2c0.3-0.3,0.7-0.6,1.2-0.6
				c0.4,0,0.8,0.1,1.1,0.4l2.5,2.2c0.3,0.2,0.5,0.5,0.5,0.9c0,0.5-0.4,0.8-1.5,1.3c-0.3,2.1-1.6,11.3-7.1,19.1
				c3.2,2.9,5.5,4.4,9.7,6.4L477.7,335.9z M458.8,308.8c0.5,8.4,4.1,14.4,6.1,17.1c3-6.2,4.1-13.1,4.6-17.1H458.8z"/>
		</g>
		<g>
			<g>
				<path class="st2" d="M351.2,307.8v16c0,0.6-1.7,1.7-3.5,1.7c-0.6,0-1.7-0.1-1.7-1v-2.3h-6.7v1.6c0,1.8-3.6,1.9-3.6,1.9
					c-0.4,0-1.4-0.1-1.4-1.1v-6.1c-0.3,0.4-0.9,1.1-2.1,1.1c-2,0-2.1-1.6-2.1-2.1c-0.1-1.7-0.1-3.7-1.4-5.4v11.6
					c0,1.5-2.8,1.9-3.8,1.9c-0.7,0-1.3-0.3-1.3-1v-7.1c-3.3,4.1-6.2,5.2-7.4,5.7L316,323c2.4-3,4.9-7.1,6.4-13.3h-4.9l-0.5-0.9h6.6
					v-6.1l5.8,0.4c0.3,0,0.8,0.2,0.8,0.6c0,0.5-0.3,0.8-1.6,1.1v4h0.6l1.6-1.9c0.2-0.3,0.4-0.4,0.7-0.4c0.2,0,0.3,0,0.8,0.3l2,1.4
					v-5.3l5.2,1.9h6.3l0.9-1.4c0.2-0.3,0.7-0.9,1.4-0.9c0.4,0,0.8,0.2,1,0.3l2.8,2.4c0.3,0.3,0.4,0.7,0.4,0.8
					C352.3,306.6,351.5,307.5,351.2,307.8z M319.5,338.9c-1.4,0-2.4-1.3-2.4-2.6c0-1.6,0.9-2.2,3.4-3.8c0.7-0.5,1.9-1.9,2.2-4.5h0.4
					c0.7,2.1,0.9,3.9,0.9,5.1C324,336.8,321.4,338.9,319.5,338.9z M342,338.9h-11.3h-0.9c-3.2,0-4-1.6-4-3.9v-7.7l6,0.6
					c0.3,0,0.5,0.2,0.5,0.5c0,0.4-0.1,0.5-1.5,1.1v3.3c0,0.6,0.2,1.5,1.9,1.5h7.1c1.6,0,2.3-1.9,3.8-6.3l0.4,0.1l-0.7,5
					c-0.1,0.5,0.3,0.8,0.7,1c0.3,0.1,1.3,0.8,1.3,2.1C345.4,337.7,344,338.9,342,338.9z M334.3,309.6h-5.6v1.3
					c2.7,0.8,4.6,1.7,5.6,3.3V309.6z M337.4,333.7c-1.6,0-1.8-0.7-2.5-3.1c-0.3-0.9-0.9-2.9-3.1-3.8l0.1-0.4c1.5,0,8,0.1,8,4.9
					C339.7,332.7,338.7,333.7,337.4,333.7z M346,305.8h-6.7v4.6h6.7V305.8z M346,311.3h-6.7v4.6h6.7V311.3z M346,316.8h-6.7v4.7h6.7
					V316.8z M350.3,338c-0.6,0-2.5-0.3-2.6-2.5c-0.1-2.9-0.3-6.1-3.3-8.1l0.2-0.4c7.7,1.9,8.2,6.6,8.2,8.2
					C352.8,336.9,351.7,338,350.3,338z"/>
				<path class="st2" d="M393.4,311.9c-0.3,0-1.3-0.1-1.6-0.1c-1.3,0.5-2.3,1.1-5.7,2.6l1.6,1.3c0.3,0.2,0.4,0.5,0.4,0.7
					c0,0.4-0.3,0.5-0.8,0.5h-8.2c0.3,1-0.6,1.2-1.1,1.3v6.6h4.2l2.2-2.8c0.2-0.3,0.4-0.4,0.7-0.4c0.3,0,0.5,0.2,0.8,0.4l3.2,2.5
					c0.2,0.2,0.4,0.4,0.4,0.8s-0.4,0.5-0.8,0.5H378v8.6c0.7,0.1,1.6,0.2,3.7,0.2c5.2,0,8.9-0.5,11.9-1.3l0.2,0.4
					c-1.9,1.6-2,2.7-2,4.9c0,0.8,0,1-5.6,1c-7.8,0-11.2-0.8-14.8-3.9c-1.7-1.6-3.3-3.3-4.5-5.8c-1.4,2.8-3.8,7.1-10.3,9.7l-0.3-0.3
					c4.7-4.3,7.1-12.3,6.9-18.7l6.4,1.4c0.4,0.1,0.7,0.4,0.7,0.7c0,0.6-0.7,0.9-1.5,1.1c-0.3,1.5-0.6,2.8-1.3,4.8
					c1.4,2.5,3,3.7,5.4,4.9V317h-10.8l-0.5-0.9h19.4l2.3-2.6c0.2-0.2,0.4-0.4,0.7-0.4s0.6,0.3,1.3,0.8c0.5-0.8,1.3-2.4,1.7-4.1
					h-23.8c0,2.8-1.5,6.5-4.1,6.5c-1.2,0-2.4-0.8-2.4-2.5c0-1.5,0.7-1.9,2-2.9c0.9-0.7,2.9-2,3.1-5.3h0.4c0.5,1.1,0.7,1.9,0.9,3.3
					h9.8v-6.2l5.9,0.4c0.4,0,0.7,0.2,0.7,0.6c0,0.7-0.8,0.8-1.6,1.1v4.2h8.7l1.6-1.7c0.5-0.5,0.9-0.7,1.3-0.7c0.5,0,0.9,0.2,1.3,0.5
					l3.4,3.4c0.2,0.2,0.3,0.4,0.3,0.7C394.5,311.5,394,311.9,393.4,311.9z"/>
				<path class="st2" d="M434.2,328h-12.7v9.3c0,0.9-0.5,1.2-1.4,1.6c-0.7,0.3-2,0.7-2.6,0.7c-1.2,0-1.6-0.5-1.6-1.1V328h-18.1
					l-0.5-1h6.5v-12.3l5.5,2.4h6.5V309h-8.4c-3,4.2-5.3,6.6-10.1,9.4l-0.3-0.3c3.8-4.9,5.8-9.7,7.2-16l6.4,1.6
					c0.4,0.1,0.8,0.3,0.8,0.6c0,0.5-0.3,0.6-1.4,0.9c-0.5,0.8-0.9,1.4-1.9,2.9h17.7l2.8-3.1c0.2-0.3,0.3-0.4,0.7-0.4
					c0.3,0,0.5,0.1,0.7,0.4l3.2,2.7c0.3,0.2,0.4,0.5,0.4,0.8c0,0.4-0.4,0.5-0.8,0.5h-11c0.2,0.1,0.4,0.3,0.4,0.6
					c0,0.5-0.4,0.6-0.9,0.8v6.7h3.4l2.4-2.8c0.2-0.3,0.3-0.4,0.7-0.4c0.3,0,0.5,0.2,0.8,0.4l2.8,2.5c0.2,0.2,0.4,0.4,0.4,0.8
					s-0.4,0.5-0.7,0.5h-9.7v9h5.4l2.8-3.5c0.2-0.3,0.3-0.4,0.7-0.4c0.3,0,0.5,0.2,0.7,0.4l3.3,3.2c0.2,0.2,0.4,0.4,0.4,0.8
					C434.9,327.9,434.5,328,434.2,328z M416,318.1h-6.8v9h6.8V318.1z"/>
				<path class="st2" d="M476.3,334.6c-1.5,0-2.8,0.5-4.1,3.7c-0.3,0.8-0.3,0.9-0.6,0.9c-0.5,0-4.3-1.9-8.5-7.4
					c-3,2.7-6.4,4.9-10.3,6c0,0.5,0,0.7-0.6,1.1c-0.8,0.5-1.6,0.8-2.6,0.8c-1.6,0-1.6-0.5-1.6-1.1v-12c-1.3,1.1-3.8,3-5.6,4.3
					c-0.3,0.2-0.5,0.4-1,0.8c-0.3,1.1-0.3,1.6-1.1,1.6c-0.2,0-0.5-0.1-0.5-0.5l-1.7-6.1c0.7-0.2,2.3-0.5,2.4-0.5v-18.8l5.4,0.5
					c0.3,0,0.8,0.2,0.8,0.7c0,0.6-0.5,0.8-1.3,1.1v15.7c0,0,2.4-0.5,2.6-0.5v-22.1l5.4,0.4c0.3,0,0.8,0.1,0.8,0.6s-0.5,0.8-1.4,1.1
					v32c3.3-1.9,5.9-4.8,8.2-7.9c-4-7.6-4.5-16.6-4.6-21.4h-3l-0.5-0.9h15.4l1.6-2c0.3-0.3,0.7-0.6,1.2-0.6c0.4,0,0.8,0.1,1.1,0.4
					l2.5,2.2c0.3,0.2,0.5,0.5,0.5,0.9c0,0.5-0.4,0.8-1.5,1.3c-0.3,2.1-1.6,11.3-7.1,19.1c3.2,2.9,5.5,4.4,9.7,6.4L476.3,334.6z
					 M457.5,307.3c0.5,8.4,4.1,14.4,6.1,17.1c3-6.2,4.1-13.1,4.6-17.1H457.5z"/>
			</g>
		</g>
	</g>
	<g>
		<g>
			<path class="st2" d="M686.6,431.5h-19c0.2,0.2,0.3,0.4,0.3,0.7c0,0.5-0.4,0.7-0.9,0.9c0,2.5-0.1,4.6-0.4,6.9h8.7l1.6-1.9
				c0.4-0.5,0.8-0.7,1.3-0.7s0.9,0.2,1.2,0.5l2.8,2.1c0.3,0.2,0.5,0.7,0.5,1.1c0,0.6-0.1,0.7-1.4,1.7c0,0.8,0,1.3-0.2,5.5
				c-0.3,8-1.3,15.3-8.9,15.3c-0.4,0-1.5,0-1.5-0.4c0-2.9-0.2-3-5.5-4.6l0.1-0.4c1.2,0.2,3.4,0.5,5.2,0.5c1.7,0,3-0.2,3.8-1.9
				c1.6-3.5,1.6-11,1.6-12.4c0-1.7,0-2.7-0.1-3.7h-9.3c-0.8,6.9-1.7,12.9-7.2,18.2c-3.7,3.6-7,4.4-8.8,4.9l-0.3-0.5
				c7.4-4.9,9.7-13.1,10.2-16.4c0.9-5.1,1-12.7,1-15.5h-11l-0.5-0.9h29.6l2.7-3c0.2-0.3,0.3-0.4,0.7-0.4c0.3,0,0.5,0.2,0.7,0.4
				l3.2,2.7c0.2,0.2,0.4,0.4,0.4,0.8C687.3,431.4,687,431.5,686.6,431.5z"/>
			<path class="st2" d="M726.5,431.8c-0.5,0.5-0.5,0.5-0.9,1v26.9c0,1.1,0,4.2-4.9,4.2c-1.4,0-1.5-0.2-1.6-0.8
				c-0.4-2.3-0.5-3.1-5.7-4.4v-0.5c0.9,0,4.7,0.2,5.4,0.2c1.5,0,1.5-0.8,1.5-1.6v-11h-22.1v15.4c0,2.2-3.3,2.8-3.8,2.8
				c-0.8,0-1.4-0.6-1.4-1.3v-35.5l5.4,2.4H720l1.6-1.7c0,0,0.5-0.6,1.3-0.6c0.5,0,0.9,0.3,1.2,0.5l2.5,2.1c0.4,0.3,0.5,0.8,0.5,0.9
				C727,431.3,726.7,431.6,726.5,431.8z M706.6,430.7h-8.3V445h8.3V430.7z M720.4,430.7h-7.7c0.4,0.3,0.4,0.6,0.4,0.7
				c0,0.3,0,0.4-1.1,1.1V445h8.4L720.4,430.7L720.4,430.7z"/>
		</g>
		<g>
			<g>
				<path class="st2" d="M685.3,430.2h-19.1c0.2,0.2,0.3,0.4,0.3,0.7c0,0.5-0.4,0.7-0.9,0.9c0,2.5-0.1,4.6-0.4,6.9h8.7l1.6-1.9
					c0.4-0.5,0.8-0.7,1.3-0.7c0.5,0,0.9,0.2,1.2,0.5l2.8,2.1c0.3,0.2,0.5,0.7,0.5,1.1c0,0.6-0.1,0.7-1.4,1.7c0,0.8,0,1.3-0.2,5.5
					c-0.3,8-1.3,15.3-8.9,15.3c-0.4,0-1.5,0-1.5-0.4c0-2.9-0.2-3-5.5-4.6l0.1-0.4c1.2,0.2,3.4,0.5,5.2,0.5c1.7,0,3-0.2,3.8-1.9
					c1.6-3.5,1.6-11,1.6-12.4c0-1.7,0-2.7-0.1-3.7h-9.3c-0.8,6.9-1.7,12.9-7.2,18.2c-3.7,3.6-7,4.4-8.8,4.9l-0.3-0.5
					c7.4-4.9,9.7-13.1,10.2-16.4c0.9-5.1,1-12.7,1-15.5h-10.8l-0.5-0.9h29.6l2.7-3c0.2-0.3,0.3-0.4,0.7-0.4c0.3,0,0.5,0.2,0.7,0.4
					l3.2,2.7c0.2,0.2,0.4,0.4,0.4,0.8S685.7,430.2,685.3,430.2z"/>
				<path class="st2" d="M725.2,430.5c-0.5,0.5-0.5,0.5-0.9,1v26.9c0,1.1,0,4.2-4.9,4.2c-1.4,0-1.5-0.2-1.6-0.8
					c-0.4-2.3-0.5-3.1-5.7-4.4v-0.5c0.9,0,4.7,0.2,5.4,0.2c1.5,0,1.5-0.8,1.5-1.6v-11h-22.1V460c0,2.2-3.3,2.8-3.8,2.8
					c-0.8,0-1.4-0.6-1.4-1.3V426l5.4,2.4h21.6l1.6-1.7c0,0,0.5-0.6,1.3-0.6c0.5,0,0.9,0.3,1.2,0.5l2.5,2.1c0.4,0.3,0.5,0.8,0.5,0.9
					C725.6,430,725.4,430.3,725.2,430.5z M705.3,429.3h-8.3v14.4h8.3V429.3z M719,429.3h-7.8c0.4,0.3,0.4,0.6,0.4,0.7
					c0,0.3,0,0.4-1.1,1.1v12.6h8.4L719,429.3L719,429.3z"/>
			</g>
		</g>
	</g>
	<g>
		<polygon class="st4" points="198.4,369.7 193.1,372.8 188.9,365.5 181.7,369.6 178.6,364.3 185.8,360.2 184,356.9 176.8,361.1 
			173.7,355.7 177.9,353.3 160.7,346.4 167.5,342.5 182.7,348.7 185,332.4 191.8,328.5 189.2,346.8 193.3,344.4 196.4,349.7 
			189.3,353.9 191.2,357.1 198.3,353 201.3,358.4 194.3,362.4 		"/>
		<path class="st5" d="M237.4,273.9c-39.5,41.8-103.8,40.8-143.3,82.7c13.8,23.9,27.6,47.8,41.3,71.6
			c39.5-41.9,103.8-40.9,143.3-82.7C264.9,321.7,251.1,297.8,237.4,273.9z M199.6,377.9c-14.7,8.4-33.3,3.4-41.7-11.2
			c-8.4-14.7-3.4-33.3,11.2-41.7c14.7-8.4,33.3-3.4,41.7,11.2C219.2,350.8,214.2,369.4,199.6,377.9z"/>
	</g>
</g>
<g>
	<g>
		<g>
			<path class="st2" d="M1184.7,415v-6.6l27.7-39.6h9l-32.5,46.2L1184.7,415L1184.7,415z M1234.4,408.2v7h-8.3v14.6h-7.9v-14.6h-24
				l4.9-7h19.1v-19.8h7.9v19.8H1234.4z"/>
			<path class="st2" d="M1241.4,429.7V420h9.8v9.7H1241.4z"/>
			<path class="st2" d="M1296.6,423.1v7c-3.7,0.4-7.4,0.6-11.1,0.6c-8,0-16.6-1-23.1-2.5v-57.8c2.3-0.6,4.9-1.2,7.9-1.4v54.2H1296.6
				z M1308.8,370.4v57.8c-2.4,0.6-5,1.2-7.9,1.4v-54.2h-26.3v-7c3.7-0.4,7.4-0.6,11.1-0.6C1293.5,367.9,1302.2,368.8,1308.8,370.4z"
				/>
		</g>
		<g>
			<g>
				<path class="st2" d="M1183.6,414v-6.6l27.7-39.6h9l-32.5,46.2L1183.6,414L1183.6,414z M1233.3,407.1v7h-8.3v14.6h-7.9v-14.6h-24
					l4.9-7h19.1v-19.8h7.9v19.8H1233.3z"/>
				<path class="st2" d="M1240.3,428.6v-9.7h9.8v9.7H1240.3z"/>
				<path class="st2" d="M1295.6,422v7c-3.7,0.4-7.4,0.6-11.1,0.6c-8,0-16.6-1-23.1-2.5v-57.8c2.3-0.6,4.9-1.2,7.9-1.4V422H1295.6z
					 M1307.7,369.3v57.8c-2.4,0.6-5,1.2-7.9,1.4v-54.2h-26.3v-7c3.7-0.4,7.4-0.6,11.1-0.6C1292.4,366.8,1301.1,367.8,1307.7,369.3z"
					/>
			</g>
		</g>
	</g>
	<g>
		<g>
			<path class="st2" d="M1110.1,328.5h-8.9v11.5c0,1.1-2.7,1.6-3.7,1.6c-1.6,0-1.6-0.6-1.6-1v-12.2h-6.9
				c-1.1,9.3-8.9,12.2-15.3,13.2l-0.1-0.4c6.6-2.4,9.6-6,10.1-12.7h-9.6l-0.5-1h10.2c0-0.5,0-1.5,0-3.1c-4.6,1-8.1,1.1-9.9,1.2v-0.4
				c5.1-1.1,8.9-3.1,12.7-6.7h-2.9c0,0.7,0,0.9-1.3,1.5c-0.8,0.3-2,0.5-2.7,0.5c-0.3,0-1.1,0-1.1-1.1v-14.8l5.2,1.9h17.1l1.6-1.8
				c0.3-0.4,0.6-0.5,1-0.5c0.3,0,0.7,0.2,1.1,0.4l2.7,2c0.3,0.3,0.5,0.7,0.5,1.1c0,0.5-0.7,1.4-1.3,2v8.2c0,0.6,0,1-1.3,1.5
				c-0.7,0.3-1.6,0.5-2.2,0.5c-1.6,0-1.6-0.5-1.6-1.4h-12.8l4.7,2.7c0.2,0.1,0.6,0.3,0.6,0.6c0,0.6-0.8,0.6-1.1,0.6
				c-0.4,0-1.2-0.1-1.3-0.1c-0.2,0.1-1.1,0.4-1.3,0.4c0.1,0.1,0.2,0.3,0.2,0.6c0,0.8-0.6,1.1-1.1,1.3c0,1.3,0,2,0,3h6.9v-7.8
				l5.3,0.4c0.7,0,1,0.2,1,0.5c0,0.3-0.3,0.7-1.1,0.9v5.9h2.8l2.2-2.6c0.2-0.2,0.4-0.4,0.7-0.4c0.3,0,0.5,0.2,0.8,0.4l2.9,2.3
				c0.2,0.1,0.4,0.3,0.4,0.7C1110.9,328.3,1110.5,328.5,1110.1,328.5z M1101.2,307.6h-17.6v4.5h17.6V307.6z M1101.2,312.9h-17.6v4.7
				h17.6V312.9z"/>
			<path class="st2" d="M1150.2,322.2c-0.1,0.4-0.3,0.4-0.5,0.4c-0.4,0-1-0.4-1.3-0.7c-4.5-3.9-6.5-6.5-7.7-11.9
				c-1.5,2.3-4.8,7.2-10.4,10.7c2.3,1.6,2.1,3.8,2.1,4.3l3.5,1.5h7.7l1.1-1.6c0.2-0.3,0.5-0.5,0.9-0.5c0.4,0,0.9,0.3,1.2,0.5
				l2.4,1.9c0.2,0.2,0.4,0.5,0.4,0.8c0,0.3-0.1,0.4-0.4,0.8c-0.1,0.2-0.7,0.9-0.8,1.1v9.7c0,0.5,0,0.9-0.7,1.3
				c-0.8,0.4-1.9,0.8-2.9,0.8c-0.8,0-1.3-0.5-1.3-1v-1.9h-7.9v1.6c0,1.3-2,1.6-3.4,1.6c-0.4,0-1.3,0-1.3-0.9v-6c-1,1-1.7,1-2.1,1
				c-1.8,0-1.9-1.6-2-3c-0.1-1.3-0.6-3.2-1.7-4.4v11.5c0,1.2-2,1.7-3.3,1.7c-0.6,0-1.1-0.1-1.1-1.1v-10c-0.2,0-0.2,0-0.4,0
				c-1.9,4.9-5,7.7-6.6,9.1l-0.4-0.3c1.7-3.6,2-6.2,2.7-11.3c-0.2,0-0.3,0.1-0.3,0.1c-0.5,0-0.7-0.6-0.7-0.9l-0.9-4.9
				c1.6-0.1,3.2-0.2,4.9-0.2c0.9-1.1,1.6-2,2.5-3.7c-0.3,0.2-0.8,0.4-1.5,0.4c-2,0-2.3-1.3-3.1-4.1c-0.5-1.7-1.1-2.9-3.8-4.6
				l0.1-0.4c0.4,0,0.7-0.1,1.2-0.1c1.6,0,3.1,0.5,4.7,1.3c1.1-2.2,2.1-4.6,2.9-6.9l5.2,2.5c0.4,0.2,0.7,0.3,0.7,0.8
				c0,0.7-0.7,0.7-1,0.7s-0.4,0-1,0c-0.8,0.7-4.3,3.7-4.9,4.3c1,0.9,1.7,1.7,1.7,3.4c1-2,1.5-3.3,2-4.6l5.6,2.3
				c0.3,0.1,0.6,0.3,0.6,0.7c0,0.7-0.6,0.7-1.6,0.6c-1.7,1.7-2.9,2.8-4.1,4c1.5,0.3,2.4,0.7,3.5,1.2c3.4-4.6,5.9-9.7,6.7-15.3
				l6.4,1.8c0.3,0.1,0.8,0.3,0.8,0.8c0,0.3-0.1,0.4-1.3,1.3c2.1,4.4,7.1,7.5,11.2,9.2l0.1,0.4
				C1151.1,319.2,1150.8,320.1,1150.2,322.2z M1120.9,325.7c-0.6,0.2-2.6,0.9-3.9,1.4c-0.3,0.8-0.4,0.9-0.6,1.1l4.6,1.1
				L1120.9,325.7L1120.9,325.7z M1125,319.4c-1.8,1.6-2.8,2.3-3.3,2.7c0.9,0,4.6-0.2,5.3-0.2C1126.6,321.1,1125.8,320,1125,319.4z
				 M1131.1,327.3c-0.3,0.1-0.6,0.3-1.2,0.3c-0.6,0-1.9-0.3-2.1-1.6c-0.1-0.4-0.3-2-0.4-2.4l-2.2,0.8v2.2c1.9,0.5,4.9,1.6,5.9,3.7
				V327.3z M1145.4,321.3h-12.9l-0.5-0.9h8.5l1.6-2.4c0.1-0.2,0.3-0.4,0.7-0.4c0.3,0,0.5,0.2,0.7,0.4l2.3,2c0.2,0.1,0.4,0.4,0.4,0.8
				C1146.1,321.2,1145.7,321.3,1145.4,321.3z M1143.7,327.1h-7.9v10.1h7.9V327.1z"/>
			<path class="st2" d="M1190.1,310.3v28.3c0,0.4,0,0.9-0.2,1.2c-0.8,1.5-2.9,1.6-3.7,1.6c-1.4,0-1.5-0.6-1.5-1.8V338h-22.1v0.8
				c0,2.5-3,2.5-3.6,2.5c-1,0-1.6-0.1-1.6-1.4V305l5.4,2.3h21.7l1.3-1.6c0.4-0.5,0.7-0.8,1.3-0.8c0.5,0,1.3,0.6,1.3,0.7l2.8,2.3
				c0.2,0.2,0.3,0.5,0.3,0.8C1191.4,309.1,1191.3,309.3,1190.1,310.3z M1184.7,308.3h-22.1V337h22.2L1184.7,308.3L1184.7,308.3z
				 M1182.5,317v13.8c0,1.9-3,2.2-3.7,2.2c-1.3,0-1.6-0.4-1.6-1.6v-1.6h-6.6v2.2c0,1.7-2.3,2-3.2,2c-0.4,0-1.7,0-1.7-1.2v-21
				l5.1,2.6h6.3l1.2-1.6c0.3-0.5,0.7-0.7,1.3-0.7c0.4,0,0.8,0.1,1.1,0.4l2.8,2c0.3,0.3,0.4,0.5,0.4,0.7
				C1183.6,315.8,1183.5,315.9,1182.5,317z M1177.1,315.4h-6.6v13.4h6.6V315.4z"/>
			<path class="st2" d="M1231.1,339.5c-0.2,0.6-0.5,1.3-0.7,1.3c-0.3,0-1.8-0.9-2.8-1.6c-2.6-1.7-4.1-3.7-4.8-4.6
				c-3.8,3.6-7.9,5.3-12.2,6.4l-0.1-0.4c0.5-0.3,0.8-0.4,1.3-0.6c-1.5,0-2-0.9-2.1-1.1c-0.2-0.3-1.1-1.7-1.3-2
				c-1.9,1.7-5.7,3.6-12,4.2v-0.5c1.7-0.5,6.1-1.6,9.5-6.4c-0.5-0.3-1-0.6-1.6-0.9l-0.5,1.3c-0.5,1.1-2.3,1.1-2.8,1.1
				c-0.4,0-2.2-0.1-2.2-1.1c0-0.2,0.1-0.5,0.2-0.6c1.1-2.2,2.3-5,3.1-6.6h-5.6l-0.5-1h6.5l1.5-3.1v-3.8c-2.3,2-4.8,3.7-7.9,4.8
				l-0.2-0.4c3.6-2.9,4.9-5.2,6.3-9.6h-4.9l-0.5-0.9h7.3v-8.8l4.9,0.3c0.5,0,0.8,0.4,0.8,0.6c0,0.5-0.6,0.8-1.1,1v5.8
				c0.8-2.1,1.7-4.9,2.3-7l4.9,1.6c0.2,0.1,0.4,0.3,0.4,0.5c0,0.5-0.3,0.5-1.4,0.7c-1.6,1.7-4.2,4.2-5.6,5.3h2.1l1.6-2.3
				c0.1-0.2,0.3-0.4,0.7-0.4c0.3,0,0.5,0.1,0.8,0.4l2.5,2c0.2,0.2,0.3,0.4,0.3,0.6c0,0.6-0.5,0.6-0.8,0.6h-7.7v0.8
				c1.8,0.2,5.6,1.1,7,3.5c2.6-3.8,3.6-9.3,4-14.2l6.2,0.8c0.4,0,0.8,0.3,0.8,0.7c0,0.6-0.6,0.8-1.4,1c-0.6,1.2-1.8,3.8-3.5,6.6h5.9
				l1.9-2.8c0.1-0.2,0.3-0.4,0.7-0.4c0.3,0,0.5,0.2,0.8,0.4l2.8,2.5c0.2,0.1,0.4,0.3,0.4,0.7c0,0.4-0.4,0.5-0.7,0.5h-1.6
				c0.1,0.2,0.1,0.3,0.1,0.5c0,0.7-0.3,0.8-1.1,1.3c-0.3,4.2-0.8,9.6-4.7,15.2c1.9,1.6,3.9,3.1,8.2,4.9v0.4
				C1232.5,337.4,1231.5,338.4,1231.1,339.5z M1200.2,312.7c-1.6,0-2-1.1-2-1.8c0-0.4,0-1.8,0-2.5c0-1.1-0.8-1.8-1.6-2.7l0.3-0.4
				c1.2,0.3,5.6,1.4,5.6,4.9C1202.5,310.5,1202.4,312.7,1200.2,312.7z M1206.7,327.5l-2,4.7c0.9,0.1,1.6,0.2,2.2,0.3
				c0.9-1.6,1.4-3,1.8-5L1206.7,327.5L1206.7,327.5z M1217.7,318.3c-1,0.9-1.5,1.3-2.2,1.7c0.1,1-0.4,2.9-2.3,2.9
				c-1.6,0-2-1.1-2.5-2.5c-0.4-1.2-1.6-3.4-2.5-4v7.1c0.4,0.1,0.8,0.3,0.8,0.7c0,0.5-0.3,0.5-1.1,0.9l-0.7,1.6h4.3l1.6-2.3
				c0.2-0.3,0.3-0.4,0.6-0.4s0.5,0.1,0.8,0.4l2.5,2.1c0.2,0.2,0.3,0.4,0.3,0.7c0,0.4-0.3,0.5-0.8,0.5h-2c0,0.7-0.3,0.8-1,1.2
				c-0.9,2.1-1.6,3.6-2.5,5.1c1.1,0.5,3.2,1.6,3.2,3.8c0,0.7-0.2,1.1-0.3,1.3c3.2-2.2,5.3-4.5,7.2-7.3
				C1220,329.9,1218,325.7,1217.7,318.3z M1220.6,314.5c-0.7,1.1-1.1,1.6-1.6,2.3c0.7,4,1.7,7.9,3.8,11.3c1.8-4.3,2.5-8.9,2.7-13.7
				L1220.6,314.5L1220.6,314.5z"/>
		</g>
		<g>
			<g>
				<path class="st2" d="M1108.7,327.1h-8.9v11.5c0,1.1-2.7,1.6-3.7,1.6c-1.6,0-1.6-0.6-1.6-1V327h-6.9c-1.1,9.3-8.9,12.2-15.3,13.2
					l-0.1-0.4c6.6-2.4,9.6-6,10.1-12.7h-9.6l-0.5-1h10.2c0-0.5,0-1.5,0-3.1c-4.6,1-8.1,1.1-9.9,1.2v-0.4c5.1-1.1,8.9-3.1,12.7-6.7
					h-2.9c0,0.7,0,0.9-1.3,1.5c-0.8,0.3-2,0.5-2.7,0.5c-0.3,0-1.1,0-1.1-1.1v-14.8l5.2,1.9h17.1l1.6-1.8c0.3-0.4,0.6-0.5,1-0.5
					c0.3,0,0.7,0.2,1.1,0.4l2.7,2c0.3,0.3,0.5,0.7,0.5,1.1c0,0.5-0.7,1.4-1.3,2v8.2c0,0.6,0,1-1.3,1.5c-0.7,0.3-1.6,0.5-2.2,0.5
					c-1.6,0-1.6-0.5-1.6-1.4h-12.8l4.7,2.7c0.2,0.1,0.6,0.3,0.6,0.6c0,0.6-0.8,0.6-1.1,0.6c-0.4,0-1.2-0.1-1.3-0.1
					c-0.2,0.1-1.1,0.4-1.3,0.4c0.1,0.1,0.2,0.3,0.2,0.6c0,0.8-0.6,1.1-1.1,1.3c0,1.3,0,2,0,3h6.9v-7.8l5.3,0.4c0.7,0,1,0.2,1,0.5
					c0,0.3-0.3,0.7-1.1,0.9v5.9h2.8l2.2-2.6c0.2-0.2,0.4-0.4,0.7-0.4s0.5,0.2,0.8,0.4l2.9,2.3c0.2,0.1,0.4,0.3,0.4,0.7
					C1109.4,326.9,1109.1,327.1,1108.7,327.1z M1099.8,306.1h-17.6v4.5h17.6V306.1z M1099.8,311.6h-17.6v4.7h17.6V311.6z"/>
				<path class="st2" d="M1148.8,320.8c-0.1,0.4-0.3,0.4-0.5,0.4c-0.4,0-1-0.4-1.3-0.7c-4.5-3.9-6.5-6.5-7.7-11.9
					c-1.5,2.3-4.8,7.2-10.4,10.7c2.3,1.6,2.1,3.8,2.1,4.3l3.5,1.5h7.7l1.1-1.6c0.2-0.3,0.5-0.5,0.9-0.5s0.9,0.3,1.2,0.5l2.4,1.9
					c0.2,0.2,0.4,0.5,0.4,0.8c0,0.3-0.1,0.4-0.4,0.8c-0.1,0.2-0.7,0.9-0.8,1.1v9.7c0,0.5,0,0.9-0.7,1.3c-0.8,0.4-1.9,0.8-2.9,0.8
					c-0.8,0-1.3-0.5-1.3-1v-1.9h-7.9v1.6c0,1.3-2,1.6-3.4,1.6c-0.4,0-1.3,0-1.3-0.9v-6c-1,1-1.7,1-2.1,1c-1.8,0-1.9-1.6-2-3
					c-0.1-1.3-0.6-3.2-1.7-4.4v11.5c0,1.2-2,1.7-3.3,1.7c-0.6,0-1.1-0.1-1.1-1.1v-10c-0.2,0-0.2,0-0.4,0c-1.9,4.9-5,7.7-6.6,9.1
					l-0.4-0.3c1.7-3.6,2-6.2,2.7-11.3c-0.2,0-0.3,0.1-0.3,0.1c-0.5,0-0.7-0.6-0.7-0.9l-0.9-4.9c1.6-0.1,3.2-0.2,4.9-0.2
					c0.9-1.1,1.6-2,2.5-3.7c-0.3,0.2-0.8,0.4-1.5,0.4c-2,0-2.3-1.3-3.1-4.1c-0.5-1.7-1.1-2.9-3.8-4.6l0.1-0.4c0.4,0,0.7-0.1,1.2-0.1
					c1.6,0,3.1,0.5,4.7,1.3c1.1-2.2,2.1-4.6,2.9-6.9l5.2,2.5c0.4,0.2,0.7,0.3,0.7,0.8c0,0.7-0.7,0.7-1,0.7c-0.3,0-0.4,0-1,0
					c-0.8,0.7-4.3,3.7-4.9,4.3c1,0.9,1.7,1.7,1.7,3.4c1-2,1.5-3.3,2-4.6l5.6,2.3c0.3,0.1,0.6,0.3,0.6,0.7c0,0.7-0.6,0.7-1.6,0.6
					c-1.7,1.7-2.9,2.8-4.1,4c1.5,0.3,2.4,0.7,3.5,1.2c3.4-4.6,5.9-9.7,6.7-15.3l6.4,1.8c0.3,0.1,0.8,0.3,0.8,0.8
					c0,0.3-0.1,0.4-1.3,1.3c2.1,4.4,7.1,7.5,11.2,9.2l0.1,0.4C1149.7,317.8,1149.5,318.8,1148.8,320.8z M1119.5,324.3
					c-0.6,0.2-2.6,0.9-3.9,1.4c-0.3,0.8-0.4,0.9-0.6,1.1l4.6,1.1L1119.5,324.3L1119.5,324.3z M1123.7,318.1
					c-1.8,1.6-2.8,2.3-3.3,2.7c0.9,0,4.6-0.2,5.3-0.2C1125.2,319.6,1124.4,318.7,1123.7,318.1z M1129.8,325.9
					c-0.3,0.1-0.6,0.3-1.2,0.3s-1.9-0.3-2.1-1.6c-0.1-0.4-0.3-2-0.4-2.4l-2.2,0.8v2.2c1.9,0.5,4.9,1.6,5.9,3.7V325.9z M1144.1,319.9
					h-12.9l-0.5-0.9h8.5l1.6-2.4c0.1-0.2,0.3-0.4,0.7-0.4c0.3,0,0.5,0.2,0.7,0.4l2.3,2c0.2,0.1,0.4,0.4,0.4,0.8
					C1144.7,319.8,1144.3,319.9,1144.1,319.9z M1142.3,325.8h-7.9v10.1h7.9V325.8z"/>
				<path class="st2" d="M1188.7,309v28.3c0,0.4,0,0.9-0.2,1.2c-0.8,1.5-2.9,1.6-3.7,1.6c-1.4,0-1.5-0.6-1.5-1.8v-1.6h-22.2v0.8
					c0,2.5-3,2.5-3.6,2.5c-1,0-1.6-0.1-1.6-1.4v-34.9l5.4,2.3h21.7l1.3-1.6c0.4-0.5,0.7-0.8,1.3-0.8c0.5,0,1.3,0.6,1.3,0.7l2.8,2.3
					c0.2,0.2,0.3,0.5,0.3,0.8C1190.1,307.7,1190,307.9,1188.7,309z M1183.4,306.9h-22.2v28.7h22.2V306.9z M1181.1,315.6v13.8
					c0,1.9-3,2.2-3.7,2.2c-1.3,0-1.6-0.4-1.6-1.6v-1.6h-6.6v2.2c0,1.7-2.3,2-3.2,2c-0.4,0-1.7,0-1.7-1.2v-21l5.1,2.6h6.3l1.2-1.6
					c0.3-0.5,0.7-0.7,1.3-0.7c0.4,0,0.8,0.1,1.1,0.4l2.8,2c0.3,0.3,0.4,0.5,0.4,0.7C1182.3,314.4,1182.1,314.6,1181.1,315.6z
					 M1175.7,314h-6.6v13.4h6.6V314z"/>
				<path class="st2" d="M1229.8,338.2c-0.2,0.6-0.5,1.3-0.7,1.3c-0.3,0-1.8-0.9-2.8-1.6c-2.6-1.7-4.1-3.7-4.8-4.6
					c-3.8,3.6-7.9,5.3-12.2,6.4l-0.1-0.4c0.5-0.3,0.8-0.4,1.3-0.6c-1.5,0-2-0.9-2.1-1.1c-0.2-0.3-1.1-1.7-1.3-2
					c-1.9,1.7-5.7,3.6-12,4.2v-0.5c1.7-0.5,6.1-1.6,9.5-6.4c-0.5-0.3-1-0.6-1.6-0.9l-0.5,1.3c-0.5,1.1-2.3,1.1-2.8,1.1
					c-0.4,0-2.2-0.1-2.2-1.1c0-0.2,0.1-0.5,0.2-0.6c1.1-2.2,2.3-5,3.1-6.6h-5.6l-0.5-1h6.5l1.5-3.1v-3.8c-2.3,2-4.8,3.7-7.9,4.8
					l-0.2-0.4c3.6-2.9,4.9-5.2,6.3-9.6h-4.9l-0.5-0.9h7.3v-8.8l4.9,0.3c0.5,0,0.8,0.4,0.8,0.6c0,0.5-0.6,0.8-1.1,1v5.8
					c0.8-2.1,1.7-4.9,2.3-7l4.9,1.6c0.2,0.1,0.4,0.3,0.4,0.5c0,0.5-0.3,0.5-1.4,0.7c-1.6,1.7-4.2,4.2-5.6,5.3h2.1l1.6-2.3
					c0.1-0.2,0.3-0.4,0.7-0.4c0.3,0,0.5,0.1,0.8,0.4l2.5,2c0.2,0.2,0.3,0.4,0.3,0.6c0,0.6-0.5,0.6-0.8,0.6h-7.7v0.8
					c1.8,0.2,5.6,1.1,7,3.5c2.6-3.8,3.6-9.3,4-14.2l6.2,0.8c0.4,0,0.8,0.3,0.8,0.7c0,0.6-0.6,0.8-1.4,1c-0.6,1.2-1.8,3.8-3.5,6.6
					h5.9l1.9-2.8c0.1-0.2,0.3-0.4,0.7-0.4c0.3,0,0.5,0.2,0.8,0.4l2.8,2.5c0.2,0.1,0.4,0.3,0.4,0.7c0,0.4-0.4,0.5-0.7,0.5h-1.6
					c0.1,0.2,0.1,0.3,0.1,0.5c0,0.7-0.3,0.8-1.1,1.3c-0.3,4.2-0.8,9.6-4.7,15.2c1.9,1.6,3.9,3.1,8.2,4.9v0.4
					C1231.1,336,1230.1,337,1229.8,338.2z M1198.9,311.4c-1.6,0-2-1.1-2-1.8c0-0.4,0-1.8,0-2.5c0-1.1-0.8-1.8-1.6-2.7l0.3-0.4
					c1.2,0.3,5.6,1.4,5.6,4.9C1201.1,309.2,1201,311.4,1198.9,311.4z M1205.3,326.1l-2,4.7c0.9,0.1,1.6,0.2,2.2,0.3
					c0.9-1.6,1.4-3,1.8-5L1205.3,326.1L1205.3,326.1z M1216.4,316.9c-1,0.9-1.5,1.3-2.2,1.7c0.1,1-0.4,2.9-2.3,2.9
					c-1.6,0-2-1.1-2.5-2.5c-0.4-1.2-1.6-3.4-2.5-4v7.1c0.4,0.1,0.8,0.3,0.8,0.7c0,0.5-0.3,0.5-1.1,0.9l-0.7,1.6h4.3l1.6-2.3
					c0.2-0.3,0.3-0.4,0.6-0.4s0.5,0.1,0.8,0.4l2.5,2.1c0.2,0.2,0.3,0.4,0.3,0.7c0,0.4-0.3,0.5-0.8,0.5h-2c0,0.7-0.3,0.8-1,1.2
					c-0.9,2.1-1.6,3.6-2.5,5.1c1.1,0.5,3.2,1.6,3.2,3.8c0,0.7-0.2,1.1-0.3,1.3c3.2-2.2,5.3-4.5,7.2-7.3
					C1218.7,328.6,1216.6,324.2,1216.4,316.9z M1219.3,313.1c-0.7,1.1-1.1,1.6-1.6,2.3c0.7,4,1.7,7.9,3.8,11.3
					c1.8-4.3,2.5-8.9,2.7-13.7L1219.3,313.1L1219.3,313.1z"/>
			</g>
		</g>
	</g>
	<g>
		<g>
			<path class="st2" d="M1161.9,421.9h-12.7v9.3c0,0.9-0.5,1.2-1.4,1.6c-0.7,0.3-2,0.7-2.6,0.7c-1.2,0-1.6-0.5-1.6-1.1v-10.5h-18.1
				l-0.5-1h6.5v-12.4l5.5,2.4h6.5v-8.2h-8.4c-3,4.2-5.3,6.6-10.1,9.4l-0.3-0.3c3.8-4.9,5.8-9.7,7.2-16l6.4,1.6
				c0.4,0.1,0.8,0.3,0.8,0.6c0,0.5-0.3,0.6-1.4,0.9c-0.5,0.8-0.9,1.4-1.9,2.9h17.7l2.8-3.1c0.2-0.3,0.3-0.4,0.7-0.4
				c0.3,0,0.5,0.1,0.7,0.4l3.2,2.7c0.3,0.2,0.4,0.5,0.4,0.8c0,0.4-0.4,0.5-0.8,0.5h-11c0.2,0.1,0.4,0.3,0.4,0.6
				c0,0.5-0.4,0.6-0.9,0.8v6.7h3.4l2.4-2.8c0.2-0.3,0.3-0.4,0.7-0.4c0.3,0,0.5,0.2,0.8,0.4l2.8,2.5c0.2,0.2,0.4,0.4,0.4,0.8
				s-0.4,0.5-0.7,0.5h-9.7v9h5.4l2.8-3.5c0.2-0.3,0.3-0.4,0.7-0.4c0.3,0,0.5,0.2,0.7,0.4l3.3,3.2c0.2,0.2,0.4,0.4,0.4,0.8
				C1162.6,421.8,1162.2,421.9,1161.9,421.9z M1143.7,412h-6.8v9h6.8V412z"/>
		</g>
		<g>
			<g>
				<path class="st2" d="M1160.6,420.6h-12.7v9.3c0,0.9-0.5,1.2-1.4,1.6c-0.7,0.3-2,0.7-2.6,0.7c-1.2,0-1.6-0.5-1.6-1.1v-10.5h-18.1
					l-0.5-1h6.5v-12.4l5.5,2.4h6.5v-8.2h-8.4c-3,4.2-5.3,6.6-10.1,9.4l-0.3-0.3c3.8-4.9,5.8-9.7,7.2-16l6.4,1.6
					c0.4,0.1,0.8,0.3,0.8,0.6c0,0.5-0.3,0.6-1.4,0.9c-0.5,0.8-0.9,1.4-1.9,2.9h17.7l2.8-3.1c0.2-0.3,0.3-0.4,0.7-0.4
					c0.3,0,0.5,0.1,0.7,0.4l3.2,2.7c0.3,0.2,0.4,0.5,0.4,0.8c0,0.4-0.4,0.5-0.8,0.5h-11c0.2,0.1,0.4,0.3,0.4,0.6
					c0,0.5-0.4,0.6-0.9,0.8v6.7h3.4l2.4-2.8c0.2-0.3,0.3-0.4,0.7-0.4c0.3,0,0.5,0.2,0.8,0.4l2.8,2.5c0.2,0.2,0.4,0.4,0.4,0.8
					s-0.4,0.5-0.7,0.5h-9.7v9h5.4l2.8-3.5c0.2-0.3,0.3-0.4,0.7-0.4c0.3,0,0.5,0.2,0.7,0.4l3.3,3.2c0.2,0.2,0.4,0.4,0.4,0.8
					C1161.2,420.5,1160.8,420.6,1160.6,420.6z M1142.3,410.6h-6.8v9h6.8V410.6z"/>
			</g>
		</g>
	</g>
	<g>
		<g>
			<path class="st2" d="M1387,430.4v36.3c0,0.5-0.1,1.1-0.3,1.5c-1.1,1.8-3.8,1.9-4.7,1.9c-1.7,0-1.8-0.8-1.8-2.4v-2h-28.3v1.1
				c0,3.2-3.9,3.2-4.6,3.2c-1.3,0-2.1-0.1-2.1-1.7v-44.6l7,3h27.9l1.6-2.1c0.5-0.7,0.9-1.1,1.6-1.1s1.6,0.8,1.6,0.9l3.6,3
				c0.3,0.3,0.4,0.6,0.4,1C1388.7,428.8,1388.5,429,1387,430.4z M1380.2,427.8h-28.3v36.8h28.3V427.8z M1377.3,438.9v17.7
				c0,2.4-3.8,2.8-4.8,2.8c-1.6,0-2.1-0.5-2.1-2.1v-2.1h-8.4v2.9c0,2.2-3,2.6-4.1,2.6c-0.5,0-2.2,0-2.2-1.5v-26.8l6.5,3.3h8.1
				l1.5-1.9c0.4-0.6,0.9-0.9,1.6-0.9c0.5,0,1,0.2,1.5,0.5l3.6,2.6c0.4,0.3,0.5,0.6,0.5,0.9C1378.7,437.4,1378.5,437.6,1377.3,438.9z
				 M1370.4,436.9h-8.4V454h8.4V436.9z"/>
		</g>
		<g>
			<g>
				<path class="st2" d="M1385.2,428.6v36.3c0,0.5-0.1,1.1-0.3,1.5c-1.1,1.8-3.8,1.9-4.7,1.9c-1.7,0-1.8-0.8-1.8-2.4v-2h-28.3v1.1
					c0,3.2-3.9,3.2-4.6,3.2c-1.3,0-2.1-0.1-2.1-1.7v-44.6l7,3h27.9l1.6-2.1c0.5-0.7,0.9-1.1,1.6-1.1s1.6,0.8,1.6,0.9l3.6,3
					c0.3,0.3,0.4,0.6,0.4,1C1387,427.1,1386.8,427.2,1385.2,428.6z M1378.4,426h-28.3v36.8h28.3V426z M1375.5,437.2v17.7
					c0,2.4-3.8,2.8-4.8,2.8c-1.6,0-2.1-0.5-2.1-2.1v-2.1h-8.4v2.9c0,2.2-3,2.6-4.1,2.6c-0.5,0-2.2,0-2.2-1.5v-26.8l6.5,3.3h8.1
					l1.5-1.9c0.4-0.6,0.9-0.9,1.6-0.9c0.5,0,1,0.2,1.5,0.5l3.6,2.6c0.4,0.3,0.5,0.6,0.5,0.9C1377,435.6,1376.8,435.8,1375.5,437.2z
					 M1368.6,435.1h-8.4v17.1h8.4V435.1z"/>
			</g>
		</g>
	</g>
	<g>
		<path class="st2" d="M982,467.4l13.4-3.4l-4.1-16c-1.4-0.2-2.6-0.5-3.9-0.8L982,467.4z"/>
		<path class="st2" d="M1013.4,416.4c-2.6-10.3-13.1-16.6-23.4-14s-16.5,13.1-14,23.4c2.6,10.3,13.1,16.6,23.4,14
			C1009.7,437.2,1016,426.7,1013.4,416.4z"/>
		<polygon class="st2" points="985.3,320.2 988.4,332.7 1001.9,329.2 		"/>
		<path class="st2" d="M1012.9,441.1l4.4,17.3l13.4-3.4l-15.4-16.3C1014.5,439.6,1013.7,440.5,1012.9,441.1z"/>
		<path class="st2" d="M982.7,342.2l-6.3-25l-126.3,31.8l24.9,99l92.8-23.4c-1.7-13.4,6.8-26.3,20.2-29.7c13.4-3.4,27.1,4,31.8,16.6
			l8.3-2.1l-18.6-74L982.7,342.2z M957.6,389.6l-79.8,20.1l-1.9-7.6l79.8-20.1L957.6,389.6z M952.7,370.2l-79.8,20.1l-1.9-7.6
			l79.8-20.1L952.7,370.2z M947.8,350.8L868,370.9l-1.9-7.6l79.8-20.1L947.8,350.8z"/>
	</g>
</g>
</svg>
