<svg xmlns="http://www.w3.org/2000/svg" xmlns:xlink="http://www.w3.org/1999/xlink" width="1021" height="358" viewBox="0 0 1021 358">
  <defs>
    <clipPath id="clip-path">
      <rect id="長方形_2" data-name="長方形 2" width="1021" height="358" fill="#fff" stroke="#707070" stroke-width="1"/>
    </clipPath>
  </defs>
  <g id="マスクグループ_1" data-name="マスクグループ 1" clip-path="url(#clip-path)">
    <g id="グループ_10" data-name="グループ 10">
      <rect id="長方形_1" data-name="長方形 1" width="1021" height="183" transform="translate(0 127)" fill="#f5ff00"/>
      <g id="グループ_8" data-name="グループ 8">
        <g id="freepik--Character--inject-621" transform="translate(541.234 -31.744)" opacity="0.5">
          <g id="freepik--character--inject-621-2" data-name="freepik--character--inject-621" transform="translate(66.766 36.744)" opacity="0.351">
            <g id="freepik--Bottom--inject-621" transform="translate(120.857 279.403)">
              <path id="パス_54" data-name="パス 54" d="M246.194,391.64c.995,5.591,2.865,12.1,4.417,23.578s-.935,11.938,6.347,40.669c4.377,17.27,3.5,24.115-7.143,38.56-11.381,15.46-23.14,12.217-30.681-5.094-6.466-14.8-5.969-21.648-5.969-36.928s0-19.718-.637-31.835c-.537-10.685.4-17.907-.2-26.164Z" transform="translate(-43.562 35.087)"/>
              <path id="パス_55" data-name="パス 55" d="M260.512,485.679c-1.99-14.823-2.368-30.144-3.064-40.152-1.552-22.424,3.323-66.694.378-100.419L201.06,338.92c1.811,13.152,17.071,72.7,22.5,108.617,0,0,1.87,48.707,4.855,70.176a4.1,4.1,0,0,0,5.73,3.223,37.466,37.466,0,0,1,25.727-1.472,4.119,4.119,0,0,0,5.531-3.979C265.327,507.665,262.024,496.8,260.512,485.679Z" transform="translate(-54.715 -17.089)"/>
              <path id="パス_56" data-name="パス 56" d="M161.4,337.84c.816,46.658.9,87.964-.617,100.081s-2.149,16.216-5.133,24.732-7.959,19.9-12.615,25.368c0,0-13.132,14.385-10.147,15.818s30.94,3.979,43.395,0,13.649-14.564,17.648-33.984,7.3-47.752,7.3-47.752a13.035,13.035,0,0,1-1.333-3.263c-1.731-5.571,3.164-20.136,4.278-34.223Z" transform="translate(-122.619 -18.158)"/>
              <path id="パス_57" data-name="パス 57" d="M181.12,394.7c-.756,4.517-4.576,9.69-6.228,16.753a126.143,126.143,0,0,0-3.323,24.513l-.477,11.54-3.144-.139s.617-14.584.9-20.991-.179-11.1-3.2-11.938C165.64,414.455,165.978,394.061,181.12,394.7Z" transform="translate(-89.77 38.098)"/>
              <path id="パス_58" data-name="パス 58" d="M205.527,378.93c2.089,5.312,8.973,12.754,11.938,17.808a19.22,19.22,0,0,1,2.507,8.735,9.133,9.133,0,0,1-2.686,6.884,107.743,107.743,0,0,0-9.57,10.884c-3.741,5.173-10.764,17.231-12.634,25.707s-2.925,15.917-10.147,20.235c-5.611,3.343-28.771,8.217-40.51,9.113-16.037,1.234-20.295-6.447-14.366-12.674s15.917-16.932,17.788-18.265a29.03,29.03,0,0,1,14.942,1.89c9.033,3.741,11.938,8.934,21.349,4.1,8.476-4.377,11.679-20.215,10.665-42.937C193.669,384.62,205.527,378.93,205.527,378.93Z" transform="translate(-127.508 22.508)"/>
              <path id="パス_59" data-name="パス 59" d="M271.287,177.17c1.114,5.85,2.368,11.321,4.5,14.226,13.012,17.768,26.3,39.3,28.89,72.584a1464.36,1464.36,0,0,1,2.785,157.841c.637,7.083,6.248,24.234,7.521,64.724,1.015,32.253-.478,82.432-.478,82.432s-23.04,11.5-43.216,3.979c-8.3-30.721-22.364-104.617-30.6-139.755-8.695-37.068-17.609-81.259-17.609-81.259L210,416.966a188.266,188.266,0,0,1,0,41.923c-2.268,21.588-18.822,97.733-18.822,97.733s-25.587,8.2-43.017-3.741c0,0-2.885-107.443-3.2-131.16s2.447-164.666,16.574-226.824a134.762,134.762,0,0,0,.756-14.425C179.383,194.46,248.783,192.59,271.287,177.17Z" transform="translate(-110.258 -177.17)"/>
              <path id="パス_60" data-name="パス 60" d="M253.32,368.48c-8.715,8.138-35.615,10.466-46.24,4.934l3.422,16.733s7,4.656,22.3,3.164,20.136-7.66,20.136-7.66Z" transform="translate(-48.758 12.166)"/>
              <path id="パス_61" data-name="パス 61" d="M192.42,364.6c-9.073,3.144-36.232,1.99-46.26-4.139l.617,14.385s5.651,5.313,20.971,6.745,21.886-2.925,21.886-2.925Z" transform="translate(-109.049 4.229)"/>
              <path id="パス_62" data-name="パス 62" d="M209.783,313.831l-11.023-79.348A50.24,50.24,0,0,1,158.37,215.66s-.4,19.9,32.372,28.572l12.913,73.121-6.944,61.5Z" transform="translate(-96.965 -139.077)"/>
              <path id="パス_63" data-name="パス 63" d="M153.37,193.824s16.614,12.3,55.413,10.187,57.462-14.624,57.263-15.261h0a54.915,54.915,0,0,1-2.726-10.088c-.139-.577-.239-1.094-.3-1.472-22.5,15.42-91.9,17.29-108.995,3.4,0,0,0,9.272-.577,13.271Z" transform="translate(-101.913 -177.15)"/>
            </g>
            <g id="freepik--Top--inject-621">
              <g id="freepik--Arm--inject-621" transform="translate(55.602 103.187)">
                <path id="パス_64" data-name="パス 64" d="M239.816,141s-21.011,3.482-36.57,18.663c-19.121,18.643-43.395,39.794-43.395,39.794a193.594,193.594,0,0,1-13.928-31.437c-7.143-21.886-4.934-28.95-1.413-36.67,1.99-4.6,4.755-10.505,5.969-13.749a42.122,42.122,0,0,1,7.78-13.052c1.751-1.811-2.268-4.676-9.172-.478-5.133,3.1-8.675,8.556-11.222,11.2-1.333-2.865-2.805-7.66-5.81-13.808-1.333-2.746-2.507-5.551-3.979-8.2a12.675,12.675,0,0,0-2.447-3.084,5.969,5.969,0,0,0-3.3-1.552,5.81,5.81,0,0,0-4.994,1.99,27.218,27.218,0,0,1-1.99,2.567c-2.089,1.99-5.73,1.234-7.66,3.283-1.154,1.174-1.413,3-2.547,4.178s-2.606,1.413-3.661,2.408c-1.87,1.771-1.632,4.915-3.263,6.884a15.917,15.917,0,0,0-3.144,4.2c-1.055,3.323.517,8.277,1.114,10.287a82.93,82.93,0,0,0,6.825,16.674c4.636,7.959,6.327,8.755,10.7,33.506,3.979,22.463,9.809,53.721,18.166,69.8s24.334,10.685,37.983.458c17.091-12.774,59.472-43.773,59.472-43.773L239.9,140.128" transform="translate(-94.711 -88.605)"/>
                <path id="パス_65" data-name="パス 65" d="M130.789,100.223c2.587,4.278,3.7,7.64-.935,12.654-2.746,2.985-9.013,9.272-7.7,14.425a10.466,10.466,0,0,1-2.666-5.671c-.139-2.985-.657-4.258-2.089-3.382a7.958,7.958,0,0,1-4.258.836s.935,2.248-2.965,3.482-11.083-4.2-14.206-15.321c0,0,6.8,13.45,11.66,12.376s3.243-11.4.4-15.718c0,0,7.163,12.4,11.222,10.625s2.328-9.491-1.85-15.619c0,0,6.287,10.187,9.948,8.774C131.585,105.953,130.889,102.113,130.789,100.223Z" transform="translate(-93.466 -78.406)"/>
                <path id="パス_66" data-name="パス 66" d="M230.029,114.45c-10.983,2.427-22.7,5.969-40.152,21.707s-39.634,36.033-39.634,36.033L138.6,147.777s-3.144,5.611-16.594,9.113-17.41,1.552-17.41,1.552,5.233,31.517,11.679,49.842,13.928,24.692,23.876,22.165,22.643-11.66,35.576-20.693S220.8,176.608,220.8,176.608Z" transform="translate(-84.925 -63.026)"/>
                <path id="パス_67" data-name="パス 67" d="M230.029,114.45c-10.983,2.427-22.7,5.969-40.152,21.707s-39.634,36.033-39.634,36.033L138.6,147.777s-3.144,5.611-16.594,9.113-17.41,1.552-17.41,1.552,5.233,31.517,11.679,49.842,13.928,24.692,23.876,22.165,22.643-11.66,35.576-20.693S220.8,176.608,220.8,176.608Z" transform="translate(-84.925 -63.026)" opacity="0.2"/>
              </g>
              <g id="freepik--Megaphone--inject-621">
                <g id="freepik--megaphone--inject-621-2" data-name="freepik--megaphone--inject-621">
                  <path id="パス_68" data-name="パス 68" d="M157.106,114.213a22.722,22.722,0,1,1,3.979-31.835,22.722,22.722,0,0,1-3.979,31.835Z" transform="translate(-13.682 -0.291)"/>
                  <path id="パス_69" data-name="パス 69" d="M147.839,95.912l-27.4-11.162a22.722,22.722,0,0,0,44.29,7.5C161.349,97.4,156.654,99.494,147.839,95.912Z" transform="translate(-13.648 10.767)"/>
                  <path id="パス_70" data-name="パス 70" d="M149.4,96.976,146.911,78.93A233.946,233.946,0,0,1,98.84,124.295l.995,7.223C111.673,127.04,131.67,112.556,149.4,96.976Z" transform="translate(-35.024 5.007)"/>
                  <path id="パス_71" data-name="パス 71" d="M160.821,103.1h-10.8L130.28,118.224a31.715,31.715,0,0,1-30.94,4.318h0c13.709-5.83,33.287-20.514,49.563-34.481Z" transform="translate(-34.529 14.043)"/>
                  <path id="パス_72" data-name="パス 72" d="M113.987,96.458v.517a3.064,3.064,0,0,0,1.671,2.149l3.86,1.572a.816.816,0,0,1,.219,1.532l-.418.338a2.945,2.945,0,0,1-2.666.358l-3.979-1.592a2.925,2.925,0,0,1-1.651-2.129v-.517a3.064,3.064,0,0,1,1.055-2.487l.418-.338a.836.836,0,0,1,1.492.6Z" transform="translate(-22.972 21.443)"/>
                  <path id="パス_73" data-name="パス 73" d="M110.529,98.706a5,5,0,0,0,0,.537,2.965,2.965,0,0,0,1.651,2.129l3.979,1.592a.816.816,0,0,1,.2,1.532l-.418.318a2.965,2.965,0,0,1-2.666.378L109.3,103.6a2.965,2.965,0,0,1-1.632-2.149v-.5a3.024,3.024,0,0,1,1.035-2.507l.418-.318C109.773,97.592,110.33,97.851,110.529,98.706Z" transform="translate(-26.299 23.731)"/>
                  <path id="パス_74" data-name="パス 74" d="M107.118,101v.537a2.965,2.965,0,0,0,1.651,2.129l3.979,1.572a.836.836,0,0,1,.219,1.552l-.418.318a3,3,0,0,1-2.686.378l-3.979-1.612a2.885,2.885,0,0,1-1.632-2.129v-.5a3.084,3.084,0,0,1,1.035-2.507l.438-.338C106.362,99.869,107,100.148,107.118,101Z" transform="translate(-29.673 25.99)"/>
                  <path id="パス_75" data-name="パス 75" d="M137.908,69h0c3.243,1.313,5.71,4.6,6.745,9.55.1.517.2,1.055.279,1.612s.159,1.313.2,1.99a28.049,28.049,0,0,1,0,3.422,37.087,37.087,0,0,1-.9,6.486,44.41,44.41,0,0,1-7.441,16.375,31,31,0,0,1-5.969,6.148c-4.556,3.542-9.013,4.5-12.555,3.183l12.3,4.954h0a14.744,14.744,0,0,0,14.206-2.487,30.879,30.879,0,0,0,5.651-5.83,44.768,44.768,0,0,0,7.68-16.693,39.075,39.075,0,0,0,.9-6.486,28.013,28.013,0,0,0,0-3.422,12.965,12.965,0,0,0-.2-1.99,15.141,15.141,0,0,0-8.416-11.719h0l-.338-.139-.478-.179Z" transform="translate(-15.794 -4.82)"/>
                  <g id="グループ_1" data-name="グループ 1" transform="translate(102.456 103.615)" opacity="0.1">
                    <path id="パス_76" data-name="パス 76" d="M130.576,103.106h0a14.744,14.744,0,0,0,14.206-2.487,30.879,30.879,0,0,0,5.651-5.83L136.784,88.82a31,31,0,0,1-5.969,6.148c-4.556,3.542-9.013,4.5-12.555,3.183Z" transform="translate(-118.26 -88.82)"/>
                  </g>
                  <path id="パス_77" data-name="パス 77" d="M128.747,72.437c-9.351,7.282-15.639,22.682-13.928,34.421.8,5.969,3.462,9.749,7.1,11.2h.2c3.542,1.313,7.959.358,12.555-3.183,9.371-7.282,15.639-22.682,13.928-34.421-.816-5.85-3.422-9.71-7.024-11.162S133.364,68.8,128.747,72.437Z" transform="translate(-19.487 -5.173)"/>
                  <g id="グループ_2" data-name="グループ 2" transform="translate(95.052 63.47)" opacity="0.2">
                    <path id="パス_78" data-name="パス 78" d="M128.747,72.437c-9.351,7.282-15.639,22.682-13.928,34.421.8,5.969,3.462,9.749,7.1,11.2h.2c3.542,1.313,7.959.358,12.555-3.183,9.371-7.282,15.639-22.682,13.928-34.421-.816-5.85-3.422-9.71-7.024-11.162S133.364,68.8,128.747,72.437Z" transform="translate(-114.539 -68.643)"/>
                  </g>
                  <path id="パス_79" data-name="パス 79" d="M124.035,47s3.979,20.713-8.178,50.379a129.33,129.33,0,0,1-7.541,15.48C97.672,131.3,86.43,139.122,86.43,139.122c14.226-3.979,29.686-7.2,45.365-4.7a173.679,173.679,0,0,1,18.146,3.979h0c3.3,1.333,7.441.378,11.66-2.9a31.834,31.834,0,0,0,7.322-8.357,39.8,39.8,0,0,0,3.422-6.665,36.55,36.55,0,0,0,2.805-18.285c-.716-5.273-3.024-8.874-6.307-10.207h0a177.08,177.08,0,0,1-15.758-9.948C140.251,72.866,131.437,59.774,124.035,47Z" transform="translate(-47.306 -26.593)"/>
                  <g id="グループ_3" data-name="グループ 3" transform="translate(39.124 20.407)" opacity="0.6">
                    <path id="パス_80" data-name="パス 80" d="M124.035,47s3.979,20.713-8.178,50.379a129.33,129.33,0,0,1-7.541,15.48C97.672,131.3,86.43,139.122,86.43,139.122c14.226-3.979,29.686-7.2,45.365-4.7a173.679,173.679,0,0,1,18.146,3.979h0c3.3,1.333,7.441.378,11.66-2.9a31.834,31.834,0,0,0,7.322-8.357,39.8,39.8,0,0,0,3.422-6.665,36.55,36.55,0,0,0,2.805-18.285c-.716-5.273-3.024-8.874-6.307-10.207h0a177.08,177.08,0,0,1-15.758-9.948C140.251,72.866,131.437,59.774,124.035,47Z" transform="translate(-86.43 -47)"/>
                  </g>
                  <g id="グループ_4" data-name="グループ 4" transform="translate(39.124 85.79)" opacity="0.1">
                    <path id="パス_81" data-name="パス 81" d="M108.316,80.317C97.672,98.761,86.43,106.58,86.43,106.58c14.226-3.979,29.686-7.2,45.365-4.7a173.687,173.687,0,0,1,18.146,3.979h0c3.3,1.333,7.441.378,11.66-2.9a31.834,31.834,0,0,0,7.322-8.357C154.7,87.7,130.223,77.591,108.316,80.317Z" transform="translate(-86.43 -79.861)"/>
                  </g>
                  <path id="パス_82" data-name="パス 82" d="M100.7,45.67c-9.769,7.581-18.106,18.882-24.1,31.536h0c-7.64,16.236-11.361,34.68-9.252,50.379,3.86,27.856,25.03,36.55,47.295,19.24a75.089,75.089,0,0,0,13.928-14.564,105.453,105.453,0,0,0,19.419-49.026c.279-2.408.458-4.8.517-7.143V73.167h0a32.127,32.127,0,0,0-.159-3.979c-.159-1.234-.239-2.786-.438-4.158C144.132,36.975,122.942,28.36,100.7,45.67Z" transform="translate(-66.766 -36.744)"/>
                  <g id="グループ_5" data-name="グループ 5" opacity="0.15">
                    <path id="パス_83" data-name="パス 83" d="M100.7,45.67c-9.769,7.581-18.106,18.882-24.1,31.536h0c-7.64,16.236-11.361,34.68-9.252,50.379,3.86,27.856,25.03,36.55,47.295,19.24a75.089,75.089,0,0,0,13.928-14.564,105.453,105.453,0,0,0,19.419-49.026c.279-2.408.458-4.8.517-7.143V73.167h0a32.127,32.127,0,0,0-.159-3.979c-.159-1.234-.239-2.786-.438-4.158C144.132,36.975,122.942,28.36,100.7,45.67Z" transform="translate(-66.766 -36.744)"/>
                  </g>
                  <g id="グループ_6" data-name="グループ 6" transform="translate(0 40.483)" opacity="0.1">
                    <path id="パス_84" data-name="パス 84" d="M76.6,57.09c-7.64,16.216-11.361,34.66-9.252,50.359,3.86,27.856,25.03,36.55,47.295,19.24a75.089,75.089,0,0,0,13.928-14.564h0c-3.979.935-11.66-.557-10.406-4.895a67.452,67.452,0,0,1-12.416,12.913c-6.407,4.974-12.674,7.561-18.146,7.481a14.425,14.425,0,0,1-11.64-5.969A33.825,33.825,0,0,1,70,105.738c-1.83-13.331,1.134-29.228,7.3-43.654C77.379,61.925,75.429,61.527,76.6,57.09Z" transform="translate(-66.766 -57.09)"/>
                  </g>
                  <path id="パス_85" data-name="パス 85" d="M99.9,46.608c-9.829,7.64-18.265,19.718-23.876,33.049-6.168,14.425-9.133,30.323-7.3,43.654A33.824,33.824,0,0,0,74.7,139.228a14.425,14.425,0,0,0,11.64,5.969c5.472,0,11.739-2.507,18.146-7.481A67.449,67.449,0,0,0,116.9,124.8c1.433-1.99,2.805-3.979,4.1-5.969a98.85,98.85,0,0,0,6.148-11.381c.378-.816.736-1.632,1.094-2.447.577-1.353,1.154-2.726,1.671-4.119a98.628,98.628,0,0,0,4.258-14.306s0-.119,0-.179a90.788,90.788,0,0,0,1.552-9.55c.219-2.268.358-4.5.4-6.685V67.42a20.685,20.685,0,0,0-.179-3.243c-.179-1.074-.2-1.99-.338-3.064A33.825,33.825,0,0,0,129.631,45.2C123.1,36.679,111.962,37.237,99.9,46.608Z" transform="translate(-65.357 -34.339)"/>
                  <g id="グループ_7" data-name="グループ 7" transform="translate(2.834 4.835)" opacity="0.4">
                    <path id="パス_86" data-name="パス 86" d="M99.9,46.608c-9.829,7.64-18.265,19.718-23.876,33.049-6.168,14.425-9.133,30.323-7.3,43.654A33.824,33.824,0,0,0,74.7,139.228a14.425,14.425,0,0,0,11.64,5.969c5.472,0,11.739-2.507,18.146-7.481A67.449,67.449,0,0,0,116.9,124.8c1.433-1.99,2.805-3.979,4.1-5.969a98.85,98.85,0,0,0,6.148-11.381c.378-.816.736-1.632,1.094-2.447.577-1.353,1.154-2.726,1.671-4.119a98.628,98.628,0,0,0,4.258-14.306s0-.119,0-.179a90.788,90.788,0,0,0,1.552-9.55c.219-2.268.358-4.5.4-6.685V67.42a20.685,20.685,0,0,0-.179-3.243c-.179-1.074-.2-1.99-.338-3.064A33.825,33.825,0,0,0,129.631,45.2C123.1,36.679,111.962,37.237,99.9,46.608Z" transform="translate(-68.191 -39.174)"/>
                  </g>
                  <path id="パス_87" data-name="パス 87" d="M95.609,58.91,83.79,87.183c6.526,2.945,14.564,6.466,20.354,14.306.458-.657.9-1.333,1.333-1.99a98.848,98.848,0,0,0,6.148-11.381c.358-.816.736-1.632,1.074-2.447.6-1.353,1.174-2.726,1.691-4.119a98.629,98.629,0,0,0,4.337-14.5s0-.119,0-.179c.139-.7.3-1.413.438-2.109C109.4,66.292,95.609,58.91,95.609,58.91Z" transform="translate(-49.919 -14.806)"/>
                  <path id="パス_88" data-name="パス 88" d="M83.915,85.934c1.99,2.587,5.312,2.507,8.834-.219h0a24.334,24.334,0,0,0,8.3-20.354v-.179a9.431,9.431,0,0,0-1.691-4.5c-1.99-2.606-5.332-2.527-8.834.219H90.4A24.314,24.314,0,0,0,82.164,81.3v.139a9.511,9.511,0,0,0,1.751,4.5Z" transform="translate(-51.616 -14.929)"/>
                </g>
              </g>
              <path id="パス_89" data-name="パス 89" d="M127.108,91.33l1.015,1.771.955,1.711c.537.975,1.074,1.99,1.572,2.965a44.608,44.608,0,0,1,1.99,4.417,20.494,20.494,0,0,1,.975,2.885,9.479,9.479,0,0,1,.2,1.035,4.228,4.228,0,0,0,.1,1.114,3.678,3.678,0,0,1,0,.458,4.877,4.877,0,0,1-.159.736c-.119.537-.239,1.055-.378,1.572-.279,1.035-.6,1.99-.955,3.084l-.537,1.433a4.7,4.7,0,0,1-.239.557,1.988,1.988,0,0,0-.259.358c-.219.378-.4.776-.617,1.154a15.325,15.325,0,0,1-1.552,2.169,6.188,6.188,0,0,1-1.831,1.552,2.865,2.865,0,0,1-2.348.159c-.358-.139-.736-.378-1.074-.219a1.034,1.034,0,0,0-.338.318,6.367,6.367,0,0,1-2.845,2.487c-1.771.6-2.467-.239-4.119-1.154-1.452,1.99-4.875,3.223-6.466,1.87-.358.816-2.189,1.791-2.925,2.308s-8.078-6.964-10.207-9.55a12.713,12.713,0,0,1-1.174-1.771,9.77,9.77,0,0,1,.875-2.388c.179-.239.5-.279.736-.438a1.811,1.811,0,0,0,.318-.219l.577-.4,1.512-1.055,1.99-1.333,2.209-1.552,2.467-1.731,2.626-1.83,2.706-1.99,2.726-1.99L117.259,98l2.467-1.751,2.248-1.552,1.99-1.353,1.532-1.074,1.055-.736Z" transform="translate(-37.943 17.279)"/>
              <path id="パス_90" data-name="パス 90" d="M231.071,110.14l35.178,10.923c5.969,2.089,28.85,15.917,20.872,50.339-2.626,11.361-6.228,27.3-9.471,43.236-2.487,12.177,6.626,35.6,13.928,72.922,0,0-30.164,23.976-90.093,17.211-45.763-5.173-50.7-22.284-50.7-22.284,1.273-42.559,5.034-59.014,4.954-75.19,0,0-6.665-8.158-6.964-22.623-.3-15.161,3.7-23.319,17.31-40.53,12.993-16.375,20.951-24.931,20.951-24.931Z" transform="translate(14.383 35.895)"/>
              <path id="パス_91" data-name="パス 91" d="M206.528,112.28c-1.632.6-15.917,4.318-15.917,4.318-10.884,10.884-30.382,35.615-34.9,44.231-6.307,11.938-6.108,26.144-6.447,45.763-.279,16.992-4.835,66.714-4.835,91.525,1.83,6.586,21.528,14.206,21.528,14.206.8,8.635-4.1-86.432.517-131.657,5.969-39.794,35.814-60.267,42.36-64.844Z" transform="translate(10.096 38.013)"/>
              <path id="パス_92" data-name="パス 92" d="M204.313,110.6l-.676,7.063c-15.8,41.087-12.674,64.366-12.873,91.525-.418,56.845,6.546,119.7,6.546,119.7s43.654,3.979,59.69-17.728c0,0-9.411-34.7-14.8-67.649-3.183-19.539,9.809-67.311,6.447-95.5-1.413-11.819-5.969-23.637-14.744-26.423-7.322-2.288-13.689-4.158-13.689-4.158Z" transform="translate(55.825 36.35)"/>
              <g id="freepik--Head--inject-621" transform="translate(175.616 20.188)">
                <path id="パス_93" data-name="パス 93" d="M170.331,118.021l-3.422-1.273c-14.982-9.133-13.112-29.228-8.794-39.515,9.65-22.961,35.436-30.343,51.155-30.343,29.845,0,44.509,11.8,46.738,27.358,3.979-.119,8.576,1.99,11.938,8.317,2.925,5.432,7.481,21.091-1.472,40.41-7.959,17.171-24.791,25.866-25.866,36.869Z" transform="translate(-155.03 -46.89)"/>
                <path id="パス_94" data-name="パス 94" d="M243.04,133.417c5.352,1.074,9.65-1.512,12.953-5.034,7.322-7.819,8.118-15.917,4.835-21.309-2.686-4.477-9.451-7.4-14.266-4.477-5.153,3.124-5.352,5.73-7.342,9.312s-9.431,3.144-10.983-11.461c-1.452-13.609-3.343-26.1-9.948-32.332-9.789-9.332-18.623-4.158-25.866,1.751-3.979-6.407-12.475-10.824-17.788-7.183-6.228,4.278-10.406,10.844-13.132,36.59-2.786,26.264,3.124,42.758,9.093,47.275,4.517,3.422,9.61,5.014,19.479,5.611L188.8,168.416s-17.748,30.561-18.066,53.085c0,0,8.973-13.808,34.6-33.825,17.071-13.371,27.736-21.25,27.736-21.25l3.482-37.207a8.476,8.476,0,0,0,6.486,4.2Z" transform="translate(-149.325 -32.56)"/>
                <path id="パス_95" data-name="パス 95" d="M164.124,77.414l10.127-2.328a4.994,4.994,0,0,0-5.969-3.979,5.472,5.472,0,0,0-4.158,6.307Z" transform="translate(-146.117 -23.036)"/>
                <path id="パス_96" data-name="パス 96" d="M181.93,76.3l10.326,3.979a5.312,5.312,0,0,0-2.925-7.163A5.81,5.81,0,0,0,181.93,76.3Z" transform="translate(-128.407 -21.305)"/>
                <path id="パス_97" data-name="パス 97" d="M191.583,92.14,174.87,96.557a8.675,8.675,0,0,0,11.361,5.969C190.807,101.054,192.638,96.836,191.583,92.14Z" transform="translate(-135.394 -2.107)"/>
                <path id="パス_98" data-name="パス 98" d="M178.19,101.221a9.073,9.073,0,0,1,9.57-7.581,5.373,5.373,0,0,1,.816.139,7.64,7.64,0,0,1-5.591,7.2A9.948,9.948,0,0,1,178.19,101.221Z" transform="translate(-132.108 -0.643)"/>
                <path id="パス_99" data-name="パス 99" d="M186.061,77.32l-5.87,25.329L166.88,95.685Z" transform="translate(-143.302 -16.774)"/>
                <circle id="楕円形_1" data-name="楕円形 1" cx="3.78" cy="3.78" r="3.78" transform="translate(52.011 63.869)"/>
                <path id="パス_100" data-name="パス 100" d="M172.978,81.984A3.78,3.78,0,1,1,169.456,78,3.78,3.78,0,0,1,172.978,81.984Z" transform="translate(-144.744 -16.105)"/>
                <path id="パス_101" data-name="パス 101" d="M175.8,117.233c10.625,1.234,24.612-3.323,29.487-6.785,2.885-1.99,6.745-7.382,10.6-13.788,0,0-3.243,15.281-10.446,19.419-10.943,6.307-30.124,6.884-30.124,6.884Z" transform="translate(-134.949 2.366)"/>
              </g>
              <g id="freepik--arm--inject-621-2" data-name="freepik--arm--inject-621" transform="translate(281.381 157.695)">
                <path id="パス_102" data-name="パス 102" d="M228.038,248.427c7.959,2.248,17.907-7.541,20.693-10.943s-.8-11.5-2.467-18.325,0-18.345-8.436-15.122S211.643,230.062,228.038,248.427Z" transform="translate(-195.182 -29.423)"/>
                <path id="パス_103" data-name="パス 103" d="M217.26,116.83c23.14,4.835,25.428,4.139,36.352,26.1,12.734,25.587,30.76,67.371,35.317,77.1s8.934,16.872-3.3,31.835C274.7,265.26,244.28,303.82,239.5,309.332c-4.218,4.895-.219,22.643,14.326,20.573,0,0-8.078,8.436-18.206,5.312-5.094-1.572-13.49-5.531-21.051-21.429-4.775-9.948-.776-17.907,6.486-29.089,8.655-13.331,27.4-50.538,27.4-50.538l-34.143-65.779S200.348,134.478,217.26,116.83Z" transform="translate(-207.484 -115.179)"/>
                <path id="パス_104" data-name="パス 104" d="M216.57,116c-5.611,5.611-14.525,26.562-2.129,56.865l33.566,62.1-11.2,23.876A49.842,49.842,0,0,0,250.1,274.2a20.474,20.474,0,0,0,16.136,3.76s17.907-19.9,24.234-28.572,7.461-11.242-.637-30.82c-7.78-18.862-32.571-76.364-37.8-85.158S236.924,120.139,216.57,116Z" transform="translate(-208.187 -116)"/>
                <path id="パス_105" data-name="パス 105" d="M216.57,116c-5.611,5.611-14.525,26.562-2.129,56.865l33.566,62.1-11.2,23.876A49.842,49.842,0,0,0,250.1,274.2a20.474,20.474,0,0,0,16.136,3.76s17.907-19.9,24.234-28.572,7.461-11.242-.637-30.82c-7.78-18.862-32.571-76.364-37.8-85.158S236.924,120.139,216.57,116Z" transform="translate(-208.187 -116)" opacity="0.2"/>
              </g>
            </g>
          </g>
        </g>
        <g id="freepik--Character--inject-621-3" data-name="freepik--Character--inject-621" transform="translate(536.234 -36.744)">
          <g id="freepik--character--inject-621-4" data-name="freepik--character--inject-621" transform="translate(66.766 36.744)">
            <g id="freepik--Bottom--inject-621-2" data-name="freepik--Bottom--inject-621" transform="translate(120.857 279.403)">
              <path id="パス_54-2" data-name="パス 54" d="M246.194,391.64c.995,5.591,2.865,12.1,4.417,23.578s-.935,11.938,6.347,40.669c4.377,17.27,3.5,24.115-7.143,38.56-11.381,15.46-23.14,12.217-30.681-5.094-6.466-14.8-5.969-21.648-5.969-36.928s0-19.718-.637-31.835c-.537-10.685.4-17.907-.2-26.164Z" transform="translate(-43.562 35.087)" fill="#37474f"/>
              <path id="パス_55-2" data-name="パス 55" d="M260.512,485.679c-1.99-14.823-2.368-30.144-3.064-40.152-1.552-22.424,3.323-66.694.378-100.419L201.06,338.92c1.811,13.152,17.071,72.7,22.5,108.617,0,0,1.87,48.707,4.855,70.176a4.1,4.1,0,0,0,5.73,3.223,37.466,37.466,0,0,1,25.727-1.472,4.119,4.119,0,0,0,5.531-3.979C265.327,507.665,262.024,496.8,260.512,485.679Z" transform="translate(-54.715 -17.089)" fill="#ffbda7"/>
              <path id="パス_56-2" data-name="パス 56" d="M161.4,337.84c.816,46.658.9,87.964-.617,100.081s-2.149,16.216-5.133,24.732-7.959,19.9-12.615,25.368c0,0-13.132,14.385-10.147,15.818s30.94,3.979,43.395,0,13.649-14.564,17.648-33.984,7.3-47.752,7.3-47.752a13.035,13.035,0,0,1-1.333-3.263c-1.731-5.571,3.164-20.136,4.278-34.223Z" transform="translate(-122.619 -18.158)" fill="#ffbda7"/>
              <path id="パス_57-2" data-name="パス 57" d="M181.12,394.7c-.756,4.517-4.576,9.69-6.228,16.753a126.143,126.143,0,0,0-3.323,24.513l-.477,11.54-3.144-.139s.617-14.584.9-20.991-.179-11.1-3.2-11.938C165.64,414.455,165.978,394.061,181.12,394.7Z" transform="translate(-89.77 38.098)" fill="#263238"/>
              <path id="パス_58-2" data-name="パス 58" d="M205.527,378.93c2.089,5.312,8.973,12.754,11.938,17.808a19.22,19.22,0,0,1,2.507,8.735,9.133,9.133,0,0,1-2.686,6.884,107.743,107.743,0,0,0-9.57,10.884c-3.741,5.173-10.764,17.231-12.634,25.707s-2.925,15.917-10.147,20.235c-5.611,3.343-28.771,8.217-40.51,9.113-16.037,1.234-20.295-6.447-14.366-12.674s15.917-16.932,17.788-18.265a29.03,29.03,0,0,1,14.942,1.89c9.033,3.741,11.938,8.934,21.349,4.1,8.476-4.377,11.679-20.215,10.665-42.937C193.669,384.62,205.527,378.93,205.527,378.93Z" transform="translate(-127.508 22.508)" fill="#37474f"/>
              <path id="パス_59-2" data-name="パス 59" d="M271.287,177.17c1.114,5.85,2.368,11.321,4.5,14.226,13.012,17.768,26.3,39.3,28.89,72.584a1464.36,1464.36,0,0,1,2.785,157.841c.637,7.083,6.248,24.234,7.521,64.724,1.015,32.253-.478,82.432-.478,82.432s-23.04,11.5-43.216,3.979c-8.3-30.721-22.364-104.617-30.6-139.755-8.695-37.068-17.609-81.259-17.609-81.259L210,416.966a188.266,188.266,0,0,1,0,41.923c-2.268,21.588-18.822,97.733-18.822,97.733s-25.587,8.2-43.017-3.741c0,0-2.885-107.443-3.2-131.16s2.447-164.666,16.574-226.824a134.762,134.762,0,0,0,.756-14.425C179.383,194.46,248.783,192.59,271.287,177.17Z" transform="translate(-110.258 -177.17)" fill="#37474f"/>
              <path id="パス_60-2" data-name="パス 60" d="M253.32,368.48c-8.715,8.138-35.615,10.466-46.24,4.934l3.422,16.733s7,4.656,22.3,3.164,20.136-7.66,20.136-7.66Z" transform="translate(-48.758 12.166)" fill="#455a64"/>
              <path id="パス_61-2" data-name="パス 61" d="M192.42,364.6c-9.073,3.144-36.232,1.99-46.26-4.139l.617,14.385s5.651,5.313,20.971,6.745,21.886-2.925,21.886-2.925Z" transform="translate(-109.049 4.229)" fill="#455a64"/>
              <path id="パス_62-2" data-name="パス 62" d="M209.783,313.831l-11.023-79.348A50.24,50.24,0,0,1,158.37,215.66s-.4,19.9,32.372,28.572l12.913,73.121-6.944,61.5Z" transform="translate(-96.965 -139.077)" fill="#263238"/>
              <path id="パス_63-2" data-name="パス 63" d="M153.37,193.824s16.614,12.3,55.413,10.187,57.462-14.624,57.263-15.261h0a54.915,54.915,0,0,1-2.726-10.088c-.139-.577-.239-1.094-.3-1.472-22.5,15.42-91.9,17.29-108.995,3.4,0,0,0,9.272-.577,13.271Z" transform="translate(-101.913 -177.15)" fill="#263238"/>
            </g>
            <g id="freepik--Top--inject-621-2" data-name="freepik--Top--inject-621">
              <g id="freepik--Arm--inject-621-3" data-name="freepik--Arm--inject-621" transform="translate(55.602 103.187)">
                <path id="パス_64-2" data-name="パス 64" d="M239.816,141s-21.011,3.482-36.57,18.663c-19.121,18.643-43.395,39.794-43.395,39.794a193.594,193.594,0,0,1-13.928-31.437c-7.143-21.886-4.934-28.95-1.413-36.67,1.99-4.6,4.755-10.505,5.969-13.749a42.122,42.122,0,0,1,7.78-13.052c1.751-1.811-2.268-4.676-9.172-.478-5.133,3.1-8.675,8.556-11.222,11.2-1.333-2.865-2.805-7.66-5.81-13.808-1.333-2.746-2.507-5.551-3.979-8.2a12.675,12.675,0,0,0-2.447-3.084,5.969,5.969,0,0,0-3.3-1.552,5.81,5.81,0,0,0-4.994,1.99,27.218,27.218,0,0,1-1.99,2.567c-2.089,1.99-5.73,1.234-7.66,3.283-1.154,1.174-1.413,3-2.547,4.178s-2.606,1.413-3.661,2.408c-1.87,1.771-1.632,4.915-3.263,6.884a15.917,15.917,0,0,0-3.144,4.2c-1.055,3.323.517,8.277,1.114,10.287a82.93,82.93,0,0,0,6.825,16.674c4.636,7.959,6.327,8.755,10.7,33.506,3.979,22.463,9.809,53.721,18.166,69.8s24.334,10.685,37.983.458c17.091-12.774,59.472-43.773,59.472-43.773L239.9,140.128" transform="translate(-94.711 -88.605)" fill="#ffbda7"/>
                <path id="パス_65-2" data-name="パス 65" d="M130.789,100.223c2.587,4.278,3.7,7.64-.935,12.654-2.746,2.985-9.013,9.272-7.7,14.425a10.466,10.466,0,0,1-2.666-5.671c-.139-2.985-.657-4.258-2.089-3.382a7.958,7.958,0,0,1-4.258.836s.935,2.248-2.965,3.482-11.083-4.2-14.206-15.321c0,0,6.8,13.45,11.66,12.376s3.243-11.4.4-15.718c0,0,7.163,12.4,11.222,10.625s2.328-9.491-1.85-15.619c0,0,6.287,10.187,9.948,8.774C131.585,105.953,130.889,102.113,130.789,100.223Z" transform="translate(-93.466 -78.406)" fill="#f0997a"/>
                <path id="パス_66-2" data-name="パス 66" d="M230.029,114.45c-10.983,2.427-22.7,5.969-40.152,21.707s-39.634,36.033-39.634,36.033L138.6,147.777s-3.144,5.611-16.594,9.113-17.41,1.552-17.41,1.552,5.233,31.517,11.679,49.842,13.928,24.692,23.876,22.165,22.643-11.66,35.576-20.693S220.8,176.608,220.8,176.608Z" transform="translate(-84.925 -63.026)" fill="#74b1ff"/>
                <path id="パス_67-2" data-name="パス 67" d="M230.029,114.45c-10.983,2.427-22.7,5.969-40.152,21.707s-39.634,36.033-39.634,36.033L138.6,147.777s-3.144,5.611-16.594,9.113-17.41,1.552-17.41,1.552,5.233,31.517,11.679,49.842,13.928,24.692,23.876,22.165,22.643-11.66,35.576-20.693S220.8,176.608,220.8,176.608Z" transform="translate(-84.925 -63.026)" opacity="0.2"/>
              </g>
              <g id="freepik--Megaphone--inject-621-3" data-name="freepik--Megaphone--inject-621">
                <g id="freepik--megaphone--inject-621-4" data-name="freepik--megaphone--inject-621">
                  <path id="パス_68-2" data-name="パス 68" d="M157.106,114.213a22.722,22.722,0,1,1,3.979-31.835,22.722,22.722,0,0,1-3.979,31.835Z" transform="translate(-13.682 -0.291)" fill="#455a64"/>
                  <path id="パス_69-2" data-name="パス 69" d="M147.839,95.912l-27.4-11.162a22.722,22.722,0,0,0,44.29,7.5C161.349,97.4,156.654,99.494,147.839,95.912Z" transform="translate(-13.648 10.767)" fill="#37474f"/>
                  <path id="パス_70-2" data-name="パス 70" d="M149.4,96.976,146.911,78.93A233.946,233.946,0,0,1,98.84,124.295l.995,7.223C111.673,127.04,131.67,112.556,149.4,96.976Z" transform="translate(-35.024 5.007)" fill="#37474f"/>
                  <path id="パス_71-2" data-name="パス 71" d="M160.821,103.1h-10.8L130.28,118.224a31.715,31.715,0,0,1-30.94,4.318h0c13.709-5.83,33.287-20.514,49.563-34.481Z" transform="translate(-34.529 14.043)" fill="#455a64"/>
                  <path id="パス_72-2" data-name="パス 72" d="M113.987,96.458v.517a3.064,3.064,0,0,0,1.671,2.149l3.86,1.572a.816.816,0,0,1,.219,1.532l-.418.338a2.945,2.945,0,0,1-2.666.358l-3.979-1.592a2.925,2.925,0,0,1-1.651-2.129v-.517a3.064,3.064,0,0,1,1.055-2.487l.418-.338a.836.836,0,0,1,1.492.6Z" transform="translate(-22.972 21.443)" fill="#74b1ff"/>
                  <path id="パス_73-2" data-name="パス 73" d="M110.529,98.706a5,5,0,0,0,0,.537,2.965,2.965,0,0,0,1.651,2.129l3.979,1.592a.816.816,0,0,1,.2,1.532l-.418.318a2.965,2.965,0,0,1-2.666.378L109.3,103.6a2.965,2.965,0,0,1-1.632-2.149v-.5a3.024,3.024,0,0,1,1.035-2.507l.418-.318C109.773,97.592,110.33,97.851,110.529,98.706Z" transform="translate(-26.299 23.731)" fill="#74b1ff"/>
                  <path id="パス_74-2" data-name="パス 74" d="M107.118,101v.537a2.965,2.965,0,0,0,1.651,2.129l3.979,1.572a.836.836,0,0,1,.219,1.552l-.418.318a3,3,0,0,1-2.686.378l-3.979-1.612a2.885,2.885,0,0,1-1.632-2.129v-.5a3.084,3.084,0,0,1,1.035-2.507l.438-.338C106.362,99.869,107,100.148,107.118,101Z" transform="translate(-29.673 25.99)" fill="#74b1ff"/>
                  <path id="パス_75-2" data-name="パス 75" d="M137.908,69h0c3.243,1.313,5.71,4.6,6.745,9.55.1.517.2,1.055.279,1.612s.159,1.313.2,1.99a28.049,28.049,0,0,1,0,3.422,37.087,37.087,0,0,1-.9,6.486,44.41,44.41,0,0,1-7.441,16.375,31,31,0,0,1-5.969,6.148c-4.556,3.542-9.013,4.5-12.555,3.183l12.3,4.954h0a14.744,14.744,0,0,0,14.206-2.487,30.879,30.879,0,0,0,5.651-5.83,44.768,44.768,0,0,0,7.68-16.693,39.075,39.075,0,0,0,.9-6.486,28.013,28.013,0,0,0,0-3.422,12.965,12.965,0,0,0-.2-1.99,15.141,15.141,0,0,0-8.416-11.719h0l-.338-.139-.478-.179Z" transform="translate(-15.794 -4.82)" fill="#74b1ff"/>
                  <g id="グループ_1-2" data-name="グループ 1" transform="translate(102.456 103.615)" opacity="0.1">
                    <path id="パス_76-2" data-name="パス 76" d="M130.576,103.106h0a14.744,14.744,0,0,0,14.206-2.487,30.879,30.879,0,0,0,5.651-5.83L136.784,88.82a31,31,0,0,1-5.969,6.148c-4.556,3.542-9.013,4.5-12.555,3.183Z" transform="translate(-118.26 -88.82)"/>
                  </g>
                  <path id="パス_77-2" data-name="パス 77" d="M128.747,72.437c-9.351,7.282-15.639,22.682-13.928,34.421.8,5.969,3.462,9.749,7.1,11.2h.2c3.542,1.313,7.959.358,12.555-3.183,9.371-7.282,15.639-22.682,13.928-34.421-.816-5.85-3.422-9.71-7.024-11.162S133.364,68.8,128.747,72.437Z" transform="translate(-19.487 -5.173)" fill="#74b1ff"/>
                  <g id="グループ_2-2" data-name="グループ 2" transform="translate(95.052 63.47)" opacity="0.2">
                    <path id="パス_78-2" data-name="パス 78" d="M128.747,72.437c-9.351,7.282-15.639,22.682-13.928,34.421.8,5.969,3.462,9.749,7.1,11.2h.2c3.542,1.313,7.959.358,12.555-3.183,9.371-7.282,15.639-22.682,13.928-34.421-.816-5.85-3.422-9.71-7.024-11.162S133.364,68.8,128.747,72.437Z" transform="translate(-114.539 -68.643)"/>
                  </g>
                  <path id="パス_79-2" data-name="パス 79" d="M124.035,47s3.979,20.713-8.178,50.379a129.33,129.33,0,0,1-7.541,15.48C97.672,131.3,86.43,139.122,86.43,139.122c14.226-3.979,29.686-7.2,45.365-4.7a173.679,173.679,0,0,1,18.146,3.979h0c3.3,1.333,7.441.378,11.66-2.9a31.834,31.834,0,0,0,7.322-8.357,39.8,39.8,0,0,0,3.422-6.665,36.55,36.55,0,0,0,2.805-18.285c-.716-5.273-3.024-8.874-6.307-10.207h0a177.08,177.08,0,0,1-15.758-9.948C140.251,72.866,131.437,59.774,124.035,47Z" transform="translate(-47.306 -26.593)" fill="#74b1ff"/>
                  <g id="グループ_3-2" data-name="グループ 3" transform="translate(39.124 20.407)" opacity="0.6">
                    <path id="パス_80-2" data-name="パス 80" d="M124.035,47s3.979,20.713-8.178,50.379a129.33,129.33,0,0,1-7.541,15.48C97.672,131.3,86.43,139.122,86.43,139.122c14.226-3.979,29.686-7.2,45.365-4.7a173.679,173.679,0,0,1,18.146,3.979h0c3.3,1.333,7.441.378,11.66-2.9a31.834,31.834,0,0,0,7.322-8.357,39.8,39.8,0,0,0,3.422-6.665,36.55,36.55,0,0,0,2.805-18.285c-.716-5.273-3.024-8.874-6.307-10.207h0a177.08,177.08,0,0,1-15.758-9.948C140.251,72.866,131.437,59.774,124.035,47Z" transform="translate(-86.43 -47)" fill="#fff"/>
                  </g>
                  <g id="グループ_4-2" data-name="グループ 4" transform="translate(39.124 85.79)" opacity="0.1">
                    <path id="パス_81-2" data-name="パス 81" d="M108.316,80.317C97.672,98.761,86.43,106.58,86.43,106.58c14.226-3.979,29.686-7.2,45.365-4.7a173.687,173.687,0,0,1,18.146,3.979h0c3.3,1.333,7.441.378,11.66-2.9a31.834,31.834,0,0,0,7.322-8.357C154.7,87.7,130.223,77.591,108.316,80.317Z" transform="translate(-86.43 -79.861)"/>
                  </g>
                  <path id="パス_82-2" data-name="パス 82" d="M100.7,45.67c-9.769,7.581-18.106,18.882-24.1,31.536h0c-7.64,16.236-11.361,34.68-9.252,50.379,3.86,27.856,25.03,36.55,47.295,19.24a75.089,75.089,0,0,0,13.928-14.564,105.453,105.453,0,0,0,19.419-49.026c.279-2.408.458-4.8.517-7.143V73.167h0a32.127,32.127,0,0,0-.159-3.979c-.159-1.234-.239-2.786-.438-4.158C144.132,36.975,122.942,28.36,100.7,45.67Z" transform="translate(-66.766 -36.744)" fill="#74b1ff"/>
                  <g id="グループ_5-2" data-name="グループ 5" opacity="0.15">
                    <path id="パス_83-2" data-name="パス 83" d="M100.7,45.67c-9.769,7.581-18.106,18.882-24.1,31.536h0c-7.64,16.236-11.361,34.68-9.252,50.379,3.86,27.856,25.03,36.55,47.295,19.24a75.089,75.089,0,0,0,13.928-14.564,105.453,105.453,0,0,0,19.419-49.026c.279-2.408.458-4.8.517-7.143V73.167h0a32.127,32.127,0,0,0-.159-3.979c-.159-1.234-.239-2.786-.438-4.158C144.132,36.975,122.942,28.36,100.7,45.67Z" transform="translate(-66.766 -36.744)" fill="#fff"/>
                  </g>
                  <g id="グループ_6-2" data-name="グループ 6" transform="translate(0 40.483)" opacity="0.1">
                    <path id="パス_84-2" data-name="パス 84" d="M76.6,57.09c-7.64,16.216-11.361,34.66-9.252,50.359,3.86,27.856,25.03,36.55,47.295,19.24a75.089,75.089,0,0,0,13.928-14.564h0c-3.979.935-11.66-.557-10.406-4.895a67.452,67.452,0,0,1-12.416,12.913c-6.407,4.974-12.674,7.561-18.146,7.481a14.425,14.425,0,0,1-11.64-5.969A33.825,33.825,0,0,1,70,105.738c-1.83-13.331,1.134-29.228,7.3-43.654C77.379,61.925,75.429,61.527,76.6,57.09Z" transform="translate(-66.766 -57.09)"/>
                  </g>
                  <path id="パス_85-2" data-name="パス 85" d="M99.9,46.608c-9.829,7.64-18.265,19.718-23.876,33.049-6.168,14.425-9.133,30.323-7.3,43.654A33.824,33.824,0,0,0,74.7,139.228a14.425,14.425,0,0,0,11.64,5.969c5.472,0,11.739-2.507,18.146-7.481A67.449,67.449,0,0,0,116.9,124.8c1.433-1.99,2.805-3.979,4.1-5.969a98.85,98.85,0,0,0,6.148-11.381c.378-.816.736-1.632,1.094-2.447.577-1.353,1.154-2.726,1.671-4.119a98.628,98.628,0,0,0,4.258-14.306s0-.119,0-.179a90.788,90.788,0,0,0,1.552-9.55c.219-2.268.358-4.5.4-6.685V67.42a20.685,20.685,0,0,0-.179-3.243c-.179-1.074-.2-1.99-.338-3.064A33.825,33.825,0,0,0,129.631,45.2C123.1,36.679,111.962,37.237,99.9,46.608Z" transform="translate(-65.357 -34.339)" fill="#74b1ff"/>
                  <g id="グループ_7-2" data-name="グループ 7" transform="translate(2.834 4.835)" opacity="0.4">
                    <path id="パス_86-2" data-name="パス 86" d="M99.9,46.608c-9.829,7.64-18.265,19.718-23.876,33.049-6.168,14.425-9.133,30.323-7.3,43.654A33.824,33.824,0,0,0,74.7,139.228a14.425,14.425,0,0,0,11.64,5.969c5.472,0,11.739-2.507,18.146-7.481A67.449,67.449,0,0,0,116.9,124.8c1.433-1.99,2.805-3.979,4.1-5.969a98.85,98.85,0,0,0,6.148-11.381c.378-.816.736-1.632,1.094-2.447.577-1.353,1.154-2.726,1.671-4.119a98.628,98.628,0,0,0,4.258-14.306s0-.119,0-.179a90.788,90.788,0,0,0,1.552-9.55c.219-2.268.358-4.5.4-6.685V67.42a20.685,20.685,0,0,0-.179-3.243c-.179-1.074-.2-1.99-.338-3.064A33.825,33.825,0,0,0,129.631,45.2C123.1,36.679,111.962,37.237,99.9,46.608Z" transform="translate(-68.191 -39.174)"/>
                  </g>
                  <path id="パス_87-2" data-name="パス 87" d="M95.609,58.91,83.79,87.183c6.526,2.945,14.564,6.466,20.354,14.306.458-.657.9-1.333,1.333-1.99a98.848,98.848,0,0,0,6.148-11.381c.358-.816.736-1.632,1.074-2.447.6-1.353,1.174-2.726,1.691-4.119a98.629,98.629,0,0,0,4.337-14.5s0-.119,0-.179c.139-.7.3-1.413.438-2.109C109.4,66.292,95.609,58.91,95.609,58.91Z" transform="translate(-49.919 -14.806)" fill="#37474f"/>
                  <path id="パス_88-2" data-name="パス 88" d="M83.915,85.934c1.99,2.587,5.312,2.507,8.834-.219h0a24.334,24.334,0,0,0,8.3-20.354v-.179a9.431,9.431,0,0,0-1.691-4.5c-1.99-2.606-5.332-2.527-8.834.219H90.4A24.314,24.314,0,0,0,82.164,81.3v.139a9.511,9.511,0,0,0,1.751,4.5Z" transform="translate(-51.616 -14.929)" fill="#74b1ff"/>
                </g>
              </g>
              <path id="パス_89-2" data-name="パス 89" d="M127.108,91.33l1.015,1.771.955,1.711c.537.975,1.074,1.99,1.572,2.965a44.608,44.608,0,0,1,1.99,4.417,20.494,20.494,0,0,1,.975,2.885,9.479,9.479,0,0,1,.2,1.035,4.228,4.228,0,0,0,.1,1.114,3.678,3.678,0,0,1,0,.458,4.877,4.877,0,0,1-.159.736c-.119.537-.239,1.055-.378,1.572-.279,1.035-.6,1.99-.955,3.084l-.537,1.433a4.7,4.7,0,0,1-.239.557,1.988,1.988,0,0,0-.259.358c-.219.378-.4.776-.617,1.154a15.325,15.325,0,0,1-1.552,2.169,6.188,6.188,0,0,1-1.831,1.552,2.865,2.865,0,0,1-2.348.159c-.358-.139-.736-.378-1.074-.219a1.034,1.034,0,0,0-.338.318,6.367,6.367,0,0,1-2.845,2.487c-1.771.6-2.467-.239-4.119-1.154-1.452,1.99-4.875,3.223-6.466,1.87-.358.816-2.189,1.791-2.925,2.308s-8.078-6.964-10.207-9.55a12.713,12.713,0,0,1-1.174-1.771,9.77,9.77,0,0,1,.875-2.388c.179-.239.5-.279.736-.438a1.811,1.811,0,0,0,.318-.219l.577-.4,1.512-1.055,1.99-1.333,2.209-1.552,2.467-1.731,2.626-1.83,2.706-1.99,2.726-1.99L117.259,98l2.467-1.751,2.248-1.552,1.99-1.353,1.532-1.074,1.055-.736Z" transform="translate(-37.943 17.279)" fill="#ffbda7"/>
              <path id="パス_90-2" data-name="パス 90" d="M231.071,110.14l35.178,10.923c5.969,2.089,28.85,15.917,20.872,50.339-2.626,11.361-6.228,27.3-9.471,43.236-2.487,12.177,6.626,35.6,13.928,72.922,0,0-30.164,23.976-90.093,17.211-45.763-5.173-50.7-22.284-50.7-22.284,1.273-42.559,5.034-59.014,4.954-75.19,0,0-6.665-8.158-6.964-22.623-.3-15.161,3.7-23.319,17.31-40.53,12.993-16.375,20.951-24.931,20.951-24.931Z" transform="translate(14.383 35.895)" fill="#fafafa"/>
              <path id="パス_91-2" data-name="パス 91" d="M206.528,112.28c-1.632.6-15.917,4.318-15.917,4.318-10.884,10.884-30.382,35.615-34.9,44.231-6.307,11.938-6.108,26.144-6.447,45.763-.279,16.992-4.835,66.714-4.835,91.525,1.83,6.586,21.528,14.206,21.528,14.206.8,8.635-4.1-86.432.517-131.657,5.969-39.794,35.814-60.267,42.36-64.844Z" transform="translate(10.096 38.013)" fill="#74b1ff"/>
              <path id="パス_92-2" data-name="パス 92" d="M204.313,110.6l-.676,7.063c-15.8,41.087-12.674,64.366-12.873,91.525-.418,56.845,6.546,119.7,6.546,119.7s43.654,3.979,59.69-17.728c0,0-9.411-34.7-14.8-67.649-3.183-19.539,9.809-67.311,6.447-95.5-1.413-11.819-5.969-23.637-14.744-26.423-7.322-2.288-13.689-4.158-13.689-4.158Z" transform="translate(55.825 36.35)" fill="#74b1ff"/>
              <g id="freepik--Head--inject-621-2" data-name="freepik--Head--inject-621" transform="translate(175.616 20.188)">
                <path id="パス_93-2" data-name="パス 93" d="M170.331,118.021l-3.422-1.273c-14.982-9.133-13.112-29.228-8.794-39.515,9.65-22.961,35.436-30.343,51.155-30.343,29.845,0,44.509,11.8,46.738,27.358,3.979-.119,8.576,1.99,11.938,8.317,2.925,5.432,7.481,21.091-1.472,40.41-7.959,17.171-24.791,25.866-25.866,36.869Z" transform="translate(-155.03 -46.89)" fill="#37474f"/>
                <path id="パス_94-2" data-name="パス 94" d="M243.04,133.417c5.352,1.074,9.65-1.512,12.953-5.034,7.322-7.819,8.118-15.917,4.835-21.309-2.686-4.477-9.451-7.4-14.266-4.477-5.153,3.124-5.352,5.73-7.342,9.312s-9.431,3.144-10.983-11.461c-1.452-13.609-3.343-26.1-9.948-32.332-9.789-9.332-18.623-4.158-25.866,1.751-3.979-6.407-12.475-10.824-17.788-7.183-6.228,4.278-10.406,10.844-13.132,36.59-2.786,26.264,3.124,42.758,9.093,47.275,4.517,3.422,9.61,5.014,19.479,5.611L188.8,168.416s-17.748,30.561-18.066,53.085c0,0,8.973-13.808,34.6-33.825,17.071-13.371,27.736-21.25,27.736-21.25l3.482-37.207a8.476,8.476,0,0,0,6.486,4.2Z" transform="translate(-149.325 -32.56)" fill="#ffbda7"/>
                <path id="パス_101-2" data-name="パス 101" d="M175.8,117.233c10.625,1.234,24.612-3.323,29.487-6.785,2.885-1.99,6.745-7.382,10.6-13.788,0,0-3.243,15.281-10.446,19.419-10.943,6.307-30.124,6.884-30.124,6.884Z" transform="translate(-134.949 2.366)" fill="#f0997a"/>
              </g>
              <g id="freepik--arm--inject-621-4" data-name="freepik--arm--inject-621" transform="translate(281.381 157.695)">
                <path id="パス_102-2" data-name="パス 102" d="M228.038,248.427c7.959,2.248,17.907-7.541,20.693-10.943s-.8-11.5-2.467-18.325,0-18.345-8.436-15.122S211.643,230.062,228.038,248.427Z" transform="translate(-195.182 -29.423)" fill="#f0997a"/>
                <path id="パス_103-2" data-name="パス 103" d="M217.26,116.83c23.14,4.835,25.428,4.139,36.352,26.1,12.734,25.587,30.76,67.371,35.317,77.1s8.934,16.872-3.3,31.835C274.7,265.26,244.28,303.82,239.5,309.332c-4.218,4.895-.219,22.643,14.326,20.573,0,0-8.078,8.436-18.206,5.312-5.094-1.572-13.49-5.531-21.051-21.429-4.775-9.948-.776-17.907,6.486-29.089,8.655-13.331,27.4-50.538,27.4-50.538l-34.143-65.779S200.348,134.478,217.26,116.83Z" transform="translate(-207.484 -115.179)" fill="#ffbda7"/>
                <path id="パス_104-2" data-name="パス 104" d="M216.57,116c-5.611,5.611-14.525,26.562-2.129,56.865l33.566,62.1-11.2,23.876A49.842,49.842,0,0,0,250.1,274.2a20.474,20.474,0,0,0,16.136,3.76s17.907-19.9,24.234-28.572,7.461-11.242-.637-30.82c-7.78-18.862-32.571-76.364-37.8-85.158S236.924,120.139,216.57,116Z" transform="translate(-208.187 -116)" fill="#74b1ff"/>
                <path id="パス_105-2" data-name="パス 105" d="M216.57,116c-5.611,5.611-14.525,26.562-2.129,56.865l33.566,62.1-11.2,23.876A49.842,49.842,0,0,0,250.1,274.2a20.474,20.474,0,0,0,16.136,3.76s17.907-19.9,24.234-28.572,7.461-11.242-.637-30.82c-7.78-18.862-32.571-76.364-37.8-85.158S236.924,120.139,216.57,116Z" transform="translate(-208.187 -116)" opacity="0.2"/>
              </g>
            </g>
          </g>
        </g>
      </g>
      <text id="NEWS" transform="translate(30 116)" fill="#00aeeb" font-size="35" font-family="Arial-Black, Arial Black" font-weight="800"><tspan x="0" y="0">NEWS</tspan></text>
      <text id="朝日新聞デジタル_Mで_Creative_Conciergeが紹介されました" data-name="朝日新聞デジタル&amp;Mで
Creative Conciergeが紹介されました" transform="translate(30 199)" fill="#00aeeb" font-size="35" font-family="HiraginoSans-W8, Hiragino Sans"><tspan x="0" y="0">朝日新聞デジタル</tspan><tspan y="0" font-family="Arial-Black, Arial Black" font-weight="800">&amp;M</tspan><tspan y="0">で</tspan><tspan y="0" font-family="Arial-Black, Arial Black" font-weight="800"></tspan><tspan font-family="Arial-Black, Arial Black" font-weight="800"><tspan x="0" y="68">Creative Concierge</tspan><tspan y="68" font-family="HiraginoSans-W8, Hiragino Sans" font-weight="400">が紹介されました</tspan></tspan></text>
      <text id="_2021.07.06" data-name="2021.07.06" transform="translate(191 116)" fill="#00aeeb" font-size="20" font-family="Arial-Black, Arial Black" font-weight="800"><tspan x="0" y="0">2021.07.06</tspan></text>
    </g>
  </g>
</svg>
